<?xml version="1.0" encoding="UTF-8" standalone="no"?>
<svg
   xmlns:dc="http://purl.org/dc/elements/1.1/"
   xmlns:cc="http://creativecommons.org/ns#"
   xmlns:rdf="http://www.w3.org/1999/02/22-rdf-syntax-ns#"
   xmlns:svg="http://www.w3.org/2000/svg"
   xmlns="http://www.w3.org/2000/svg"
   xmlns:xlink="http://www.w3.org/1999/xlink"
   xmlns:sodipodi="http://sodipodi.sourceforge.net/DTD/sodipodi-0.dtd"
   xmlns:inkscape="http://www.inkscape.org/namespaces/inkscape"
   id="svg2"
   width="200"
   height="200"
   version="1"
   sodipodi:docname="clock.svg"
   inkscape:version="0.92.1 r">
  <metadata
     id="metadata57">
    <rdf:RDF>
      <cc:Work
         rdf:about="">
        <dc:format>image/svg+xml</dc:format>
        <dc:type
           rdf:resource="http://purl.org/dc/dcmitype/StillImage" />
        <dc:title></dc:title>
      </cc:Work>
    </rdf:RDF>
  </metadata>
  <sodipodi:namedview
     pagecolor="#ffffff"
     bordercolor="#666666"
     borderopacity="1"
     objecttolerance="10"
     gridtolerance="10"
     guidetolerance="10"
     inkscape:pageopacity="0"
     inkscape:pageshadow="2"
     inkscape:window-width="1680"
     inkscape:window-height="966"
     id="namedview55"
     showgrid="false"
     inkscape:zoom="1.45"
     inkscape:cx="303.22622"
     inkscape:cy="135.29447"
     inkscape:current-layer="svg2"
     showguides="true"
     inkscape:guide-bbox="true"
     inkscape:window-x="0"
     inkscape:window-y="0"
     inkscape:window-maximized="1" />
  <defs
     id="defs5">
    <style
       id="current-color-scheme"
       type="text/css">
   .ColorScheme-Text { color:#d3dae3; } .ColorScheme-Highlight { color:#5294e2; } .ColorScheme-Background { color:#383c4a; }
  </style>
    <linearGradient
       id="linearGradient4011">
      <stop
         id="stop4013"
         style="stop-color:#232629;stop-opacity:1;"
         offset="0" />
      <stop
         id="stop4019"
         style="stop-color:#232629;stop-opacity:0.52348995;"
         offset=".9" />
      <stop
         id="stop4021"
         style="stop-color:#232629;stop-opacity:0.10738255;"
         offset=".96" />
      <stop
         id="stop4015"
         style="stop-color:#232629;stop-opacity:0;"
         offset="1" />
    </linearGradient>
    <radialGradient
       id="radialGradient4671"
       cx="1255.872"
       cy="382.729"
       r="96.606"
       fx="1255.872"
       fy="382.729"
       gradientTransform="matrix(1.0765432,0,0,1.0765432,-1252,-312.02447)"
       gradientUnits="userSpaceOnUse"
       xlink:href="#linearGradient4011" />
    <linearGradient
       inkscape:collect="always"
       xlink:href="#linearGradient4794"
       id="linearGradient5478-7"
       x1="1614.9736"
       y1="-758.75427"
       x2="1590.5845"
       y2="71.716187"
       gradientUnits="userSpaceOnUse"
       gradientTransform="matrix(0.9259361,0,0,0.9259361,119.55947,-47.343604)" />
    <linearGradient
       id="linearGradient4794"
       inkscape:collect="always">
      <stop
         id="stop4790"
         offset="0"
         style="stop-color:#ffffff;stop-opacity:1" />
      <stop
         id="stop4792"
         offset="1"
         style="stop-color:#a5bcb4;stop-opacity:1" />
    </linearGradient>
    <linearGradient
       gradientTransform="matrix(0.82677256,0,0,0.82677256,-2949.1032,1167.7213)"
       inkscape:collect="always"
       xlink:href="#linearGradient4794"
       id="linearGradient5478-5-5"
       x1="1614.9736"
       y1="-758.75427"
       x2="1613.2407"
       y2="151.90764"
       gradientUnits="userSpaceOnUse" />
  </defs>
  <g
     id="MinuteHand">
    <rect
       id="rect4675"
       style="opacity:0.01000001;fill:#232629;fill-opacity:0.60392157;stroke:none"
       width="12"
       height="85"
       x="239.99998"
       y="94.000046" />
    <path
       id="rect5459"
       style="color:#d3dae3;fill:#808080;fill-opacity:1;stroke:none;stroke-width:1"
       d="m 247.54535,101.17708 -0.0254,61.35016 -3,-7.9e-4 0.0254,-61.35016 z"
       class="ColorScheme-Text"
       inkscape:connector-curvature="0" />
    <circle
       id="path5457"
       style="color:#d3dae3;fill:#808080;fill-opacity:1;stroke:none;stroke-width:0.56475115"
       cx="-37.361767"
       cy="-262.89117"
       r="3.6703179"
       transform="rotate(120.21865)"
       class="ColorScheme-Text" />
  </g>
  <g
     id="HourHandShadow"
     style="opacity:0.1"
     transform="matrix(-0.60001469,-0.79998898,0.79998898,-0.60001469,467.12524,1262.6976)">
    <path
       id="path4376"
       style="fill:#262626;fill-opacity:0;stroke:none"
       d="m 980.52302,549.88656 -5.95481,-0.74154 2.52119,5.5089 0.0361,-0.0506 34.4809,25.90467 3.4218,-4.69848 -34.48069,-25.90464 z" />
    <circle
       id="path4378"
       style="fill:#232629;fill-opacity:0.00392157;stroke:none"
       cx="1771.396"
       cy="382.032"
       r="6.499"
       transform="translate(-754,199.1995)" />
  </g>
  <g
     id="SecondHand">
    <rect
       id="rect6212"
       style="color:#5294e2;fill:currentColor;fill-opacity:1;stroke:none;stroke-width:1"
       width="69.287865"
       height="1.7319999"
       x="99.189522"
       y="-272.96448"
       transform="matrix(-7.9983892e-4,0.99999968,-0.9999998,-6.3543693e-4,0,0)"
       class="ColorScheme-Highlight" />
    <rect
       id="rect4677"
       style="opacity:0.01000001;fill:#000000;fill-opacity:1;stroke:none"
       width="8"
       height="7"
       x="268"
       y="96.000031" />
    <path
       id="path6214"
       style="color:#5294e2;fill:currentColor;fill-opacity:1;stroke:none;stroke-width:0.29783452"
       d="m 271.04591,101.71342 c -0.92548,-0.5352 -1.24186,-1.719321 -0.70666,-2.644787 0.53521,-0.925492 1.71933,-1.241871 2.64481,-0.706665 0.92548,0.535206 1.24186,1.719322 0.70665,2.644812 -0.5352,0.92547 -1.71932,1.24185 -2.6448,0.70664 z"
       class="ColorScheme-Highlight"
       inkscape:connector-curvature="0" />
    <g
       transform="rotate(120.04085,783.34532,125.78037)"
       style="opacity:0.1;fill:#232629;fill-opacity:0"
       id="SecondHandShadow">
      <path
         inkscape:connector-curvature="0"
         transform="rotate(-30)"
         d="M 591.80505,1011.186 H 667.541 v 1.7321 h -75.73595 z"
         style="fill:#232629;fill-opacity:0;stroke:none"
         id="rect4414" />
      <circle
         transform="matrix(0.29783451,0,0,0.29783451,489.8134,467.44934)"
         r="6.4990001"
         cy="382.03201"
         cx="1771.396"
         style="fill:#232629;fill-opacity:0;stroke:none"
         id="path4416" />
      <rect
         transform="rotate(-120.04085,705.50009,80.642475)"
         y="97"
         x="113"
         height="82"
         width="6"
         style="opacity:0.01000001;fill:#232629;fill-opacity:0;stroke:none"
         id="rect4715" />
    </g>
  </g>
  <circle
     id="HandCenterScrew"
     style="opacity:0.001;fill:#232629;fill-opacity:1;stroke:none"
     d="m -45,100 a 5,5 0 1 1 -10,0 5,5 0 1 1 10,0 z" />
  <g
     id="MinuteHandShadow"
     style="opacity:0.1;fill:#232629;fill-opacity:1"
     transform="matrix(-0.50330119,0.86411105,-0.86411105,-0.50330119,1348.3525,-486.65826)">
    <path
       id="rect4404"
       style="fill:#262626;fill-opacity:0;stroke:none"
       d="m 590.1651,1012.6146 73.73595,0 0,3 -73.73595,0 z"
       transform="matrix(0.8642748,-0.50301995,0.50301995,0.8642748,0,0)" />
    <circle
       id="path4406"
       style="fill:#232629;fill-opacity:0.00392157;stroke:none"
       cx="1771.396"
       cy="382.032"
       r="6.499"
       transform="matrix(0.62496371,0,0,0.62496371,-89.662081,342.47545)" />
  </g>
  <g
     id="HourHand">
    <rect
       id="rect4673-9"
       style="opacity:0.01000001;fill:#232629;fill-opacity:0.60392157;stroke:none"
       width="18"
       height="64"
       x="213.98276"
       y="89.823685" />
    <path
       inkscape:connector-curvature="0"
       id="rect5450-6"
       style="color:#d3dae3;fill:#808080;fill-opacity:1;stroke:none;stroke-width:1"
       d="m 225.95689,103.38161 -2.97975,-5.709199 -2.89431,5.833729 0.0621,-0.001 -0.0344,47.2714 5.81186,-0.0897 0.0345,-47.27119 z"
       class="ColorScheme-Text" />
    <circle
       id="path5455-2-0"
       style="color:#d3dae3;fill:#808080;fill-opacity:1;stroke:none"
       cx="-212.85124"
       cy="119.08759"
       r="6.4990001"
       transform="rotate(-126.87095)"
       class="ColorScheme-Text" />
  </g>
  <g
     transform="matrix(0.7454022,0,0,0.7454022,-1103.2838,576.48079)"
     id="ClockFace">
    <circle
       r="134.15576"
       cy="-639.22644"
       cx="1614.2745"
       id="path5194"
       style="opacity:1;fill:url(#linearGradient5478-7);fill-opacity:1;stroke:none;stroke-width:0.2585789;stroke-miterlimit:4;stroke-dasharray:none;stroke-opacity:1" />
    <circle
       transform="scale(-1)"
       r="119.78829"
       cy="639.22644"
       cx="-1614.4653"
       id="path5194-7-3"
       style="opacity:1;fill:url(#linearGradient5478-5-5);fill-opacity:1;stroke:none;stroke-width:0.2308863;stroke-miterlimit:4;stroke-dasharray:none;stroke-opacity:1" />
    <path
       inkscape:connector-curvature="0"
       id="path5215"
       d="m 1610.3697,-519.18288 c -8.8051,-0.3094 -17.0003,-1.47142 -25.5681,-3.6254 -9.4348,-2.37196 -18.4893,-5.86672 -26.9396,-10.39784 -3.0004,-1.60892 -3.5832,-1.94354 -6.4653,-3.71201 -18.2151,-11.17655 -33.4197,-27.43288 -43.4177,-46.42079 -3.0165,-5.72904 -5.5582,-11.69367 -7.6183,-17.87806 -2.9712,-8.91929 -4.8606,-18.09499 -5.7288,-27.8212 -0.5074,-5.68498 -0.5488,-13.56924 -0.1004,-19.18697 0.3758,-4.70878 1.2944,-11.33857 2.0651,-14.90379 0.1339,-0.61961 0.3702,-1.72169 0.5252,-2.44906 0.3632,-1.70493 1.3,-5.31982 1.9927,-7.69001 2.7499,-9.40803 6.9218,-18.92383 12.0689,-27.52732 2.7857,-4.65621 6.3002,-9.70692 9.3987,-13.50689 0.434,-0.53228 0.9215,-1.13244 1.0831,-1.33369 2.2213,-2.76573 6.5821,-7.45651 9.5748,-10.2992 2.1013,-1.99615 5.3231,-4.86756 6.6359,-5.91415 0.2027,-0.16164 0.804,-0.64884 1.3363,-1.08266 3.8353,-3.12586 9.0144,-6.72392 13.7028,-9.51969 3.0392,-1.81226 7.7814,-4.32666 10.5974,-5.61897 3.3498,-1.53718 5.5179,-2.44242 9.191,-3.83723 3.9909,-1.51557 11.058,-3.59633 15.2331,-4.48506 0.7274,-0.15483 1.8294,-0.39109 2.4491,-0.52502 3.554,-0.76821 10.159,-1.68433 14.8902,-2.06528 3.3451,-0.26934 8.6632,-0.37742 12.6125,-0.25631 4.1302,0.12665 5.9939,0.26229 10.3105,0.75042 11.3128,1.27926 22.7564,4.31153 33.2581,8.81254 7.1402,3.0603 13.3031,6.40943 19.6613,10.68447 13.0824,8.79629 24.4523,20.1714 32.9897,33.00475 0.3943,0.59267 0.8366,1.2539 0.9828,1.46943 0.3501,0.51573 2.4403,3.89305 2.7586,4.45727 0.1367,0.24245 0.5782,1.0139 0.981,1.71433 5.1038,8.87441 9.2714,19.27367 11.8759,29.63349 1.0383,4.13034 1.4685,6.22988 2.2579,11.02072 0.4489,2.72449 1.0148,7.97668 1.2454,11.55951 0.1575,2.44738 0.1579,11.38603 0,13.81264 -0.4104,6.33453 -1.2433,12.47136 -2.473,18.22093 -0.4591,2.14667 -1.4797,6.22912 -2.1062,8.42472 -0.3876,1.35873 -2.1175,6.5972 -2.685,8.13084 -4.0732,11.0083 -9.635,21.15195 -16.839,30.71108 -0.67,0.889 -1.7733,2.2931 -2.452,3.12023 -0.6785,0.82712 -1.3648,1.6647 -1.5252,1.86127 -3.3911,4.15663 -10.2526,11.01763 -14.4662,14.46538 -0.1966,0.16085 -1.0342,0.84765 -1.8613,1.52621 -2.4494,2.00937 -5.6629,4.39509 -8.4102,6.24372 -6.2453,4.20234 -12.8326,7.80412 -19.5924,10.7127 -10.511,4.52265 -21.8989,7.58906 -33.0132,8.88947 -2.9302,0.34285 -5.2036,0.55487 -7.4451,0.69435 -1.6353,0.10175 -9.2584,0.19634 -10.9717,0.13613 z m 3.2327,-3.80129 v -3.27155 l -1.4449,-0.0576 c -3.5619,-0.14192 -6.065,-0.27872 -7.4695,-0.40824 -0.8352,-0.077 -1.6091,-0.14053 -1.72,-0.14118 -0.1889,-7.8e-4 -0.2118,0.10166 -0.3663,1.63972 -0.3638,3.61979 -0.4753,4.84277 -0.4443,4.87372 0.072,0.0715 3.2894,0.34301 5.2245,0.44089 2.2046,0.11148 3.1309,0.14389 5.0205,0.17561 l 1.2,0.0202 z m 7.788,3.06946 c 1.8311,-0.0948 4.9615,-0.36747 5.0324,-0.43829 0.02,-0.0199 -0.036,-0.75458 -0.1236,-1.63264 -0.088,-0.87808 -0.2316,-2.32386 -0.3195,-3.21286 -0.088,-0.88901 -0.1866,-1.64241 -0.2194,-1.67424 -0.033,-0.0318 -0.8971,0.0195 -1.9208,0.11401 -2.3079,0.2131 -5.1825,0.38531 -6.4262,0.38495 -0.5173,0 -1.2776,0.0282 -1.6898,0.0632 l -0.7495,0.0633 v 3.28065 3.28068 l 2.2775,-0.0662 c 1.2527,-0.0364 3.1152,-0.10954 4.1389,-0.16255 z m -19.8373,-0.66256 c 0,-0.24373 0.1577,-1.91958 0.4055,-4.30724 0.1134,-1.09345 0.1898,-2.004 0.1698,-2.02345 -0.02,-0.0195 -0.6757,-0.10725 -1.4569,-0.19513 -1.8158,-0.20426 -6.6298,-0.95728 -8.2571,-1.29162 -0.6891,-0.14158 -1.2762,-0.23412 -1.3046,-0.20566 -0.029,0.0285 -0.2211,0.88267 -0.4278,1.89824 -0.2069,1.01557 -0.4873,2.33141 -0.623,2.92407 -0.3675,1.6043 -0.3688,1.54439 0.032,1.63337 0.3993,0.0886 1.793,0.33903 4.6043,0.82762 1.7108,0.29734 5.9343,0.87538 6.6369,0.90835 0.1519,0.007 0.2204,-0.0452 0.2204,-0.16855 z m 28.0597,-0.11772 c 2.0035,-0.24264 7.4899,-1.13854 8.872,-1.44876 0.4075,-0.0915 0.4107,0.0297 -0.053,-2.02615 -0.1822,-0.80819 -0.4665,-2.15032 -0.6318,-2.98249 -0.1652,-0.8322 -0.3173,-1.52994 -0.338,-1.55056 -0.021,-0.0206 -0.6915,0.0984 -1.491,0.26456 -1.6878,0.3507 -6.493,1.11488 -8.2377,1.31004 -0.6601,0.0739 -1.2275,0.1616 -1.261,0.195 -0.033,0.0334 0.033,0.95539 0.1455,2.04884 0.2477,2.38766 0.4054,4.06351 0.4054,4.30724 0,0.0984 0.033,0.17873 0.074,0.1785 0.041,0 1.1727,-0.13351 2.516,-0.29622 z m -40.4539,-1.88304 c 0.028,-0.12122 0.1423,-0.61716 0.2543,-1.10206 0.3149,-1.36236 1.0685,-5.07945 1.0364,-5.11152 -0.016,-0.0157 -0.4443,-0.11421 -0.9525,-0.21882 -2.049,-0.42183 -8.44,-2.13168 -9.5336,-2.55064 -0.1557,-0.0596 -0.2942,-0.0962 -0.3079,-0.0812 -0.048,0.0515 -2.005,6.18271 -1.9806,6.20191 0.055,0.0438 1.989,0.64513 3.4041,1.05881 1.7102,0.49996 7.2316,1.89631 7.9575,2.01247 0.04,0.006 0.095,-0.0878 0.1223,-0.20897 z m 51.8239,-0.12492 c 2.2665,-0.48628 6.6622,-1.67146 8.9636,-2.41678 0.5118,-0.16577 0.9416,-0.31005 0.9549,-0.32061 0.041,-0.0316 -1.9474,-6.16831 -2.0243,-6.25004 -0.039,-0.0414 -0.2661,-0.005 -0.5048,0.0799 -1.5253,0.54559 -9.5817,2.68944 -10.1069,2.68944 -0.095,0 -0.1723,0.026 -0.1723,0.0579 0,0.20821 0.8491,4.2378 1.3255,6.29071 0.037,0.15841 0.1028,0.21039 0.2206,0.17386 0.092,-0.0286 0.6972,-0.16563 1.3437,-0.30435 z m -63.8222,-3.13662 c 0,-0.15124 0.8658,-2.85955 1.565,-4.89589 l 0.3708,-1.0797 -1.5311,-0.52684 c -2.7574,-0.94876 -6.1996,-2.27832 -8.4132,-3.24964 -0.3205,-0.14066 -0.5473,-0.19069 -0.6017,-0.13276 -0.048,0.0511 -0.2642,0.51173 -0.4804,1.02359 -0.216,0.51185 -0.6223,1.43759 -0.9028,2.0572 -0.7117,1.57162 -1.1742,2.64777 -1.1742,2.73152 0,0.23557 10.2882,4.19933 10.9472,4.21764 0.1361,0.004 0.2204,-0.0517 0.2204,-0.14512 z m 76.4175,-0.47802 c 2.6358,-0.91889 4.3528,-1.58578 8.0992,-3.14607 0.4984,-0.20756 0.9062,-0.40935 0.9062,-0.44843 0,-0.0836 -0.4611,-1.15635 -1.1741,-2.73152 -0.2804,-0.61961 -0.7066,-1.58944 -0.9473,-2.15517 -0.2406,-0.56572 -0.4685,-1.06017 -0.5065,-1.09876 -0.038,-0.0386 -0.4212,0.0852 -0.8514,0.27505 -2.1662,0.95617 -5.0858,2.0931 -7.926,3.0865 -0.912,0.31897 -1.6732,0.59491 -1.6914,0.6132 -0.018,0.0183 0.1395,0.53584 0.3508,1.15014 0.7049,2.05033 1.5782,4.78002 1.5782,4.93308 0,0.24311 0.2562,0.18648 2.1623,-0.47802 z m -33.8041,-0.74836 c 1.9796,-0.10365 3.1017,-0.19152 6.2207,-0.48713 2.339,-0.2217 2.6147,-0.25806 5.9756,-0.78797 13.7381,-2.16611 27.0749,-6.95285 39.1098,-14.03696 2.7668,-1.62861 6.3476,-3.93523 8.2058,-5.28595 5.8381,-4.24332 9.9525,-7.72735 14.5428,-12.31425 3.0938,-3.09165 6.773,-7.24187 9.0661,-10.22663 0.3232,-0.42079 0.7666,-0.99131 0.985,-1.26779 0.374,-0.47315 1.6547,-2.22887 2.5821,-3.53953 1.1426,-1.61502 3.4158,-5.13007 4.4663,-6.90632 0.207,-0.35021 0.5602,-0.94534 0.7846,-1.32249 3.5361,-5.94307 7.2323,-14.22831 9.5929,-21.50264 0.6426,-1.98029 1.4688,-4.74232 1.6556,-5.53485 0.076,-0.32328 0.2939,-1.1829 0.4837,-1.91027 0.9398,-3.60128 2.0135,-9.34614 2.4718,-13.22486 0.6901,-5.84158 0.8669,-8.74923 0.8669,-14.25347 0,-5.50517 -0.1772,-8.41891 -0.8672,-14.25346 -1.3399,-11.33136 -4.9667,-23.6948 -10.0582,-34.28669 -5.2859,-10.9964 -11.8614,-20.5186 -20.2942,-29.38858 -2.482,-2.61074 -7.1236,-6.95322 -9.2666,-8.66964 -3.0562,-2.44765 -3.849,-3.07179 -4.8073,-3.78399 -3.225,-2.39664 -6.1666,-4.36402 -9.7473,-6.51899 -0.5388,-0.32426 -1.3322,-0.78847 -1.7633,-1.03159 -0.431,-0.24312 -1.1584,-0.65511 -1.6163,-0.91552 -1.0465,-0.59504 -5.8598,-3.03352 -6.9064,-3.49885 -5.0908,-2.26332 -7.7512,-3.31857 -11.6575,-4.62389 -5.8798,-1.96477 -11.9675,-3.43876 -18.1876,-4.40359 -6.083,-0.94359 -11.1761,-1.33033 -17.5195,-1.33033 -6.3435,0 -11.4366,0.38674 -17.5196,1.33033 -20.5621,3.18953 -39.8023,12.05761 -55.7559,25.69864 -4.7784,4.08561 -10.3451,9.75464 -13.7638,14.01637 -0.1616,0.20151 -0.6269,0.78001 -1.034,1.28557 -7.9808,9.90973 -14.5454,21.88424 -18.6829,34.0793 -2.5793,7.6022 -4.1464,14.62556 -5.2568,23.55986 -0.865,6.95986 -0.865,18.51025 0,25.47012 1.3593,10.93684 3.4886,19.4446 7.2447,28.94775 2.4037,6.0817 6.1464,13.43265 9.4017,18.46583 4.4334,6.8547 8.7602,12.4185 13.5113,17.37402 0.7048,0.73518 1.4579,1.52785 1.6734,1.76145 0.4744,0.51419 4.1429,3.97319 5.4369,5.12644 5.9563,5.30825 12.3047,9.7962 20.2781,14.33564 1.2538,0.71374 5.6183,2.92975 6.9801,3.54396 5.1624,2.32837 8.1556,3.49944 12.8572,5.03025 6.9831,2.27365 15.3942,4.06913 22.2373,4.7469 6.9919,0.69249 12.1395,0.84453 18.074,0.5338 z m -1.8658,-2.87881 c -0.1354,-0.13507 -0.1145,-0.71443 0.029,-0.80691 0.067,-0.0433 0.387,-0.10109 0.7103,-0.12824 l 0.5876,-0.0494 0.024,-0.44083 c 0.017,-0.30036 -0.3599,-1.98237 -1.1806,-5.27815 l -1.2045,-4.83732 -0.4055,1.45764 c -0.2229,0.80168 -0.6313,2.29519 -0.9074,3.3189 -0.276,1.02371 -0.693,2.5666 -0.9266,3.42867 -0.5666,2.09036 -0.569,2.10295 -0.4367,2.26249 0.068,0.0824 0.2987,0.13757 0.5733,0.13757 0.6087,0 0.815,0.15791 0.7736,0.5921 l -0.032,0.33855 -2.1427,0.0265 c -2.3146,0.0286 -2.4125,0.009 -2.4125,-0.47581 0,-0.30585 0.2249,-0.48126 0.6171,-0.48126 0.345,0 0.7011,-0.32151 0.8333,-0.75215 0.1219,-0.39767 0.76,-2.72757 1.5644,-5.71333 2.7853,-10.33674 2.5351,-9.60028 3.261,-9.60028 0.7197,0 0.6442,-0.21234 2.3014,6.46549 2.5442,10.25209 2.2889,9.45013 3.0709,9.64159 0.5196,0.12722 0.6763,0.33099 0.5439,0.70744 l -0.095,0.26928 -2.5268,0.005 c -1.4726,0.004 -2.5656,-0.0336 -2.6199,-0.0877 z m -12.4366,-0.39487 c 0,-0.47048 0.035,-0.49755 0.7251,-0.56279 0.1678,-0.0159 0.3592,-0.12777 0.4674,-0.27347 0.1735,-0.23354 0.1862,-0.60441 0.2387,-7.00428 0.053,-6.42971 0.047,-6.77432 -0.1246,-7.10053 -0.1366,-0.26023 -0.2509,-0.34935 -0.4739,-0.36973 -0.7221,-0.066 -0.7477,-0.087 -0.7154,-0.58859 0.019,-0.29543 0.074,-0.4586 0.1521,-0.45234 0.067,0.005 1.2245,0.0164 2.5715,0.0245 l 2.4491,0.0147 v 0.37226 c 0,0.46666 -0.1383,0.60737 -0.5965,0.60737 -0.2099,0 -0.4584,0.0786 -0.5927,0.18723 l -0.2313,0.18724 -0.026,6.96652 -0.026,6.96651 0.2284,0.22851 c 0.1388,0.1388 0.4064,0.25517 0.6815,0.29642 0.4817,0.0722 0.5523,0.17058 0.4813,0.67004 l -0.038,0.26941 h -2.5849 -2.5848 z m -36.4418,-8.59009 c -0.7519,-0.48 -2.3832,-1.4155 -3.1103,-1.78359 -0.5608,-0.28393 -0.6496,-0.51004 -0.3618,-0.92101 0.1975,-0.28199 0.3335,-0.27447 0.9159,0.0506 0.4754,0.26545 0.4829,0.26634 0.6881,0.0807 0.114,-0.10321 0.2764,-0.43337 0.3606,-0.73371 0.085,-0.30031 0.3452,-1.20727 0.5797,-2.01546 0.2345,-0.80819 0.6979,-2.43925 1.0295,-3.62459 0.3317,-1.18534 0.708,-2.50517 0.8363,-2.93293 0.1282,-0.42777 0.2206,-0.79027 0.2053,-0.80555 -0.069,-0.069 -7.5108,7.48946 -7.5108,7.62867 0,0.0862 0.2204,0.31521 0.4898,0.50874 0.2724,0.19569 0.4897,0.42927 0.4897,0.52619 0,0.24024 -0.2736,0.60974 -0.4516,0.60974 -0.081,0 -0.5962,-0.28016 -1.1456,-0.62259 -0.5492,-0.34241 -1.3202,-0.78971 -1.7131,-0.99398 -0.771,-0.40074 -0.9686,-0.62297 -0.8128,-0.91401 0.2086,-0.38961 0.3638,-0.4386 0.8281,-0.26124 0.4029,0.15385 0.4579,0.15425 0.7712,0.005 0.1935,-0.0918 2.5899,-2.43714 5.6185,-5.49849 2.9046,-2.93614 5.4186,-5.42515 5.5866,-5.53114 0.168,-0.106 0.4168,-0.19273 0.5529,-0.19273 0.2879,0 0.856,0.48943 0.856,0.73743 0,0.0929 -0.1286,0.61526 -0.2859,1.16073 -0.7032,2.43983 -1.3122,4.57967 -1.8715,6.57556 -0.3321,1.18534 -0.7293,2.57395 -0.8823,3.0858 -0.5967,1.99398 -1.1727,4.20877 -1.1727,4.50841 0,0.23406 0.087,0.39446 0.3429,0.62833 0.1908,0.17482 0.3428,0.40869 0.3428,0.52752 0,0.20355 -0.31,0.60635 -0.4653,0.60437 -0.041,-7.8e-4 -0.36,-0.18386 -0.7102,-0.40745 z m 95.0952,-2.70406 c -0.095,-0.0204 -0.2408,-0.16886 -0.324,-0.32975 -0.1492,-0.28835 -0.146,-0.29742 0.2217,-0.63432 0.3338,-0.30584 0.3723,-0.39025 0.3664,-0.8021 0,-0.26299 -0.2494,-1.25817 -0.5727,-2.32159 -0.3112,-1.0237 -0.7848,-2.58863 -1.0524,-3.47765 -0.9457,-3.14293 -1.3471,-4.47352 -1.7879,-5.92669 -0.8954,-2.95181 -1.0302,-3.4844 -0.9412,-3.71852 0.1156,-0.30414 0.5641,-0.6408 0.8536,-0.6408 0.2847,0 0.2992,0.0135 6.565,6.10721 2.5976,2.52637 4.8679,4.70124 5.045,4.83306 0.3411,0.25388 0.5541,0.25743 1.1363,0.0189 0.3058,-0.12532 0.3352,-0.11894 0.5121,0.11126 0.3536,0.46023 0.2664,0.59069 -0.8139,1.2188 -0.5513,0.32052 -1.4955,0.90462 -2.0982,1.298 -0.6028,0.39337 -1.1428,0.71523 -1.2,0.71523 -0.1895,0 -0.496,-0.38785 -0.496,-0.62744 0,-0.1747 0.111,-0.30061 0.4293,-0.48722 0.5098,-0.29875 0.5959,-0.4721 0.4117,-0.8284 -0.1341,-0.25937 -7.3052,-7.29934 -7.3697,-7.23489 -0.018,0.0179 0.19,0.75681 0.4621,1.64193 0.2722,0.88514 0.708,2.31466 0.9687,3.17672 0.2607,0.86206 0.7196,2.38012 1.0199,3.37348 0.3002,0.99335 0.6075,1.86766 0.6827,1.94291 0.1172,0.1171 0.2088,0.10036 0.6363,-0.11626 0.5973,-0.3027 0.7169,-0.31099 0.9393,-0.0651 0.3511,0.38786 0.185,0.57837 -1.2585,1.44375 -0.7501,0.44971 -1.4334,0.87545 -1.5185,0.94612 -0.3168,0.26339 -0.6495,0.41956 -0.8171,0.38348 z m -106.263,-3.75461 c -0.6195,-0.37542 -1.5232,-0.89827 -2.0081,-1.16188 -1.3022,-0.70794 -1.2814,-0.68736 -1.084,-1.06917 0.2079,-0.40208 0.3566,-0.4561 0.7274,-0.26435 0.3533,0.18266 0.6893,0.19324 0.9038,0.0285 0.2342,-0.17988 0.2263,-0.16665 3.2463,-5.40927 0.6207,-1.07758 1.4719,-2.55436 1.8916,-3.28173 2.0943,-3.63007 2.0762,-3.57655 1.4038,-4.15212 -0.3889,-0.33283 -0.4004,-0.35876 -0.2834,-0.64114 0.2198,-0.53081 0.2738,-0.52183 1.5703,0.26124 0.6735,0.40681 1.6358,0.95961 2.1386,1.22842 0.5029,0.26885 0.9359,0.54508 0.9623,0.61386 0.026,0.0688 -0.024,0.26576 -0.1137,0.43773 -0.1738,0.33621 -0.2667,0.34478 -0.9093,0.0839 -0.5875,-0.2385 -0.8291,0.0246 -2.0796,2.26446 -0.2562,0.45887 -0.8734,1.53963 -1.3716,2.4017 -4.8648,8.41684 -4.5034,7.64142 -3.8187,8.1916 0.2155,0.1732 0.3918,0.37584 0.3918,0.4503 0,0.18007 -0.28,0.71519 -0.3699,0.70703 -0.039,-0.003 -0.5779,-0.31359 -1.1976,-0.68901 z m -4.9274,-2.83926 c -0.528,-0.32399 -1.4538,-0.85637 -2.0572,-1.18304 -1.4051,-0.7607 -1.4027,-0.75844 -1.1988,-1.15282 0.2037,-0.3939 0.3374,-0.44313 0.6958,-0.2562 0.7288,0.38 1.0455,0.11383 2.0935,-1.75916 0.6042,-1.08008 1.3367,-2.35502 3.3204,-5.77976 2.7971,-4.82902 2.7459,-4.69802 2.0571,-5.27019 -0.396,-0.32898 -0.4047,-0.34862 -0.2834,-0.64162 0.069,-0.16626 0.1756,-0.34207 0.2372,-0.39072 0.074,-0.0579 0.5854,0.19705 1.4834,0.73849 0.7543,0.45482 1.6359,0.96162 1.9592,1.1262 0.3233,0.16461 0.7067,0.38322 0.8521,0.48583 l 0.2643,0.18656 -0.2006,0.33982 c -0.2168,0.36766 -0.3881,0.41059 -0.7688,0.19289 -0.3524,-0.2014 -0.6395,-0.1785 -0.9218,0.0734 -0.1358,0.12123 -0.7393,1.08004 -1.3412,2.13067 -1.4923,2.60514 -2.6812,4.67051 -4.0601,7.05327 -1.8122,3.13169 -1.7743,3.00538 -1.0791,3.58644 l 0.4348,0.36345 -0.1919,0.37615 c -0.1056,0.20688 -0.224,0.37461 -0.2633,0.37274 -0.04,-0.002 -0.5035,-0.26847 -1.0316,-0.59246 z m -26.8405,-24.77359 c -0.3118,-0.58991 -0.8518,-1.54678 -1.2,-2.1264 -0.755,-1.25719 -0.7666,-1.32391 -0.2721,-1.58419 0.3408,-0.17932 0.4055,-0.14344 0.77,0.42616 0.3657,0.57177 0.4436,0.60937 0.8242,0.39856 0.2331,-0.12906 7.5574,-7.03361 7.5106,-7.08027 -0.022,-0.0221 -0.6441,0.1359 -5.5471,1.40834 -1.1585,0.30062 -2.6462,0.67733 -3.3063,0.83714 -0.6601,0.1598 -1.2898,0.3637 -1.3994,0.45313 l -0.1992,0.16259 0.2559,0.51201 c 0.1408,0.2816 0.2415,0.58218 0.2238,0.66796 -0.042,0.20612 -0.5073,0.48177 -0.6925,0.41068 -0.08,-0.0309 -0.4012,-0.53367 -0.7127,-1.1173 -0.3115,-0.58362 -0.7703,-1.39175 -1.0197,-1.79584 -0.2494,-0.4041 -0.4393,-0.80572 -0.4218,-0.8925 0.032,-0.15749 0.4106,-0.38101 0.646,-0.38101 0.068,0 0.2609,0.15429 0.4279,0.34287 0.4104,0.46363 0.7216,0.45224 2.8673,-0.10497 0.9429,-0.24485 2.3756,-0.61472 3.1837,-0.8219 0.8082,-0.2072 2.6596,-0.68661 4.1144,-1.06536 4.6955,-1.22248 5.7477,-1.48542 5.9445,-1.48542 0.3251,0 0.7659,0.52441 0.7659,0.91102 0,0.31197 -0.1469,0.47803 -1.8858,2.13164 -1.0372,0.98633 -2.3491,2.2371 -2.9155,2.7795 -0.5664,0.54242 -1.8222,1.73561 -2.7907,2.65155 -0.9684,0.91595 -2.2573,2.15126 -2.8642,2.74514 -1.186,1.16069 -1.2406,1.26968 -0.9869,1.97103 0.1003,0.27771 0.092,0.34909 -0.064,0.52125 -0.099,0.1097 -0.2948,0.19895 -0.4347,0.19831 -0.2233,-7.9e-4 -0.3233,-0.13165 -0.8213,-1.07372 z m 176.7762,-1.68568 c -0.3771,-0.23256 -0.3796,-0.25071 -0.1065,-0.77475 0.2082,-0.39935 0.2088,-0.41244 0.032,-0.74004 -0.099,-0.18341 -0.3373,-0.42688 -0.5303,-0.54103 -0.1929,-0.11414 -0.6151,-0.3728 -0.9384,-0.57479 -0.7061,-0.44124 -5.9282,-3.6479 -7.1022,-4.36126 -0.4579,-0.27826 -1.2074,-0.74133 -1.6654,-1.02902 -1.0942,-0.68733 -1.8426,-1.07195 -2.0861,-1.07195 -0.1084,0 -0.3599,0.17633 -0.5589,0.39185 -0.4166,0.45133 -0.5347,0.47353 -0.9085,0.17094 l -0.2718,-0.21992 0.4349,-0.6458 c 0.2392,-0.35518 0.8406,-1.325 1.3363,-2.15516 0.4958,-0.83014 0.9146,-1.52396 0.9307,-1.54179 0.041,-0.0455 0.4535,0.17564 0.6542,0.35051 0.1576,0.1374 0.1561,0.16812 -0.024,0.52231 -0.3979,0.77975 -0.2266,0.99331 1.7672,2.20379 2.5947,1.57534 3.0793,1.87121 3.9184,2.39272 0.458,0.2846 1.0311,0.63681 1.2736,0.78269 0.2425,0.14588 0.9257,0.56418 1.5183,0.92954 3.6201,2.23168 3.6365,2.23989 4.0448,2.0214 0.1095,-0.0586 0.2952,-0.26202 0.4126,-0.452 l 0.2135,-0.34543 0.383,0.21528 c 0.2107,0.11842 0.383,0.2571 0.383,0.30819 0,0.0511 -0.3276,0.60504 -0.7282,1.23097 -0.4005,0.62594 -0.9846,1.57524 -1.298,2.10956 -0.3133,0.53432 -0.6139,0.98231 -0.6677,0.9955 -0.054,0.0132 -0.2412,-0.0643 -0.4163,-0.17231 z m 3.0858,-5.03318 c -0.2989,-0.16357 -0.3322,-0.362 -0.1225,-0.72895 0.2188,-0.38262 0.1776,-0.71849 -0.1224,-0.99846 -0.291,-0.27159 -0.3914,-0.3366 -2.6695,-1.72964 -0.8351,-0.51066 -1.9812,-1.21258 -2.547,-1.55981 -0.5657,-0.34722 -1.6237,-0.99504 -2.3511,-1.43958 -0.7273,-0.44454 -1.8074,-1.10979 -2.4,-1.47832 -2.0153,-1.25317 -2.2342,-1.31929 -2.7036,-0.81671 -0.1564,0.16734 -0.2843,0.34367 -0.2843,0.39185 0,0.16459 -0.3424,0.0869 -0.6295,-0.14278 l -0.2868,-0.22942 0.8745,-1.38622 c 0.481,-0.76244 1.0509,-1.69725 1.2664,-2.07735 0.5215,-0.91974 0.5552,-0.94313 0.9814,-0.67973 0.1926,0.11903 0.3371,0.24483 0.3211,0.27955 -0.016,0.0347 -0.1118,0.27142 -0.213,0.52601 -0.3159,0.79458 -0.5116,0.63457 4.5922,3.75313 1.1315,0.69135 2.7406,1.6752 3.5757,2.18634 0.835,0.51115 2.0468,1.25222 2.6928,1.64685 0.6459,0.39461 1.281,0.71747 1.4115,0.71747 0.1557,0 0.3756,-0.15081 0.64,-0.43872 l 0.4028,-0.43873 0.3163,0.19238 c 0.174,0.10581 0.3163,0.25051 0.3163,0.32159 0,0.0711 -0.1414,0.34722 -0.3143,0.61369 -0.1729,0.26648 -0.7389,1.18983 -1.2577,2.0519 -0.5188,0.86205 -1.0056,1.57722 -1.0816,1.58923 -0.076,0.012 -0.2595,-0.0445 -0.4077,-0.12557 z m -185.8956,-3.9877 c -0.4899,-0.93185 -1.1999,-2.1681 -1.742,-3.0332 -0.1259,-0.2009 -0.229,-0.38712 -0.229,-0.41383 0,-0.0866 0.5729,-0.34759 0.7544,-0.34371 0.097,0.003 0.2647,0.14438 0.3728,0.31624 0.1082,0.17186 0.3184,0.35528 0.4672,0.40761 0.3324,0.11692 0.6491,-0.0298 3.2058,-1.48512 1.836,-1.04513 2.5732,-1.46252 4.1633,-2.35764 5.3717,-3.02357 5.4066,-3.04838 5.1551,-3.6675 -0.2595,-0.63894 -0.2509,-0.73316 0.083,-0.90566 0.1709,-0.0883 0.351,-0.14686 0.4006,-0.13011 0.05,0.0168 0.4346,0.64759 0.8559,1.4019 0.4215,0.75431 0.982,1.74024 1.2458,2.19098 0.4649,0.79429 0.4738,0.82382 0.2884,0.95938 -0.3346,0.24467 -0.6597,0.27988 -0.7741,0.0838 -0.2768,-0.47476 -0.5176,-0.66872 -0.8194,-0.66014 -0.1972,0.005 -0.9185,0.352 -2.0001,0.96041 -3.1921,1.79566 -4.8277,2.71966 -5.7081,3.22478 -0.485,0.27818 -1.3446,0.76308 -1.9103,1.07756 -1.7879,0.99388 -2.6223,1.51436 -2.6836,1.67387 -0.1029,0.26806 -0.065,0.62738 0.1,0.94616 0.1568,0.30313 0.1549,0.31158 -0.1224,0.53344 -0.155,0.12399 -0.3479,0.22497 -0.4287,0.22442 -0.086,-7.9e-4 -0.3646,-0.41516 -0.674,-1.00363 z m 188.9185,-0.90421 c -0.1019,-0.0772 -0.232,-0.15588 -0.2892,-0.17491 -0.065,-0.0215 -0.022,-0.22663 0.1145,-0.54211 0.201,-0.4672 0.2067,-0.53003 0.071,-0.79153 -0.081,-0.15624 -0.3795,-0.42844 -0.6639,-0.6049 -0.5269,-0.32701 -2.1018,-1.29706 -3.162,-1.94766 -2.4923,-1.52941 -5.568,-3.42165 -6.4654,-3.97754 -1.9715,-1.22123 -2.0928,-1.24995 -2.6299,-0.62245 -0.3661,0.42768 -0.493,0.44208 -0.9291,0.10547 l -0.2284,-0.17621 0.7785,-1.21812 c 0.4281,-0.66997 1.0311,-1.64794 1.34,-2.17326 0.3087,-0.52532 0.6121,-0.95491 0.6743,-0.95464 0.062,0 0.2445,0.1058 0.4054,0.23452 l 0.2924,0.23401 -0.17,0.35659 c -0.209,0.43823 -0.2155,0.73128 -0.022,1.00698 0.1387,0.19802 0.3999,0.37051 2.4972,1.64875 0.458,0.2791 1.2075,0.74031 1.6654,1.02492 0.458,0.28459 1.2074,0.74532 1.6653,1.02384 0.458,0.2785 1.9127,1.16918 3.2328,1.97926 2.6666,1.63642 2.9522,1.79703 3.1966,1.79703 0.093,0 0.3583,-0.20289 0.5893,-0.45088 l 0.4199,-0.45086 0.3462,0.21396 c 0.1903,0.11767 0.3461,0.24761 0.3461,0.28873 0,0.0412 -0.1828,0.35714 -0.4063,0.70224 -0.5185,0.80092 -1.6487,2.65749 -1.9472,3.19895 -0.2412,0.43733 -0.4147,0.50222 -0.7217,0.26982 z m -191.8276,-4.23728 c -0.3088,-0.57919 -0.8673,-1.57266 -1.2411,-2.20769 -0.7367,-1.2513 -0.7417,-1.30331 -0.1505,-1.54817 0.2426,-0.10053 0.3173,-0.10201 0.3489,-0.007 0.023,0.0665 0.1502,0.25156 0.2846,0.41119 0.4095,0.48672 0.8449,0.40295 2.2841,-0.43951 0.2963,-0.17347 1.0016,-0.57252 1.5674,-0.88679 0.5656,-0.31426 1.3812,-0.7766 1.8123,-1.02743 0.431,-0.25082 1.1804,-0.67834 1.6653,-0.95005 0.4849,-0.27171 1.6971,-0.9565 2.694,-1.52173 0.9967,-0.56525 1.9445,-1.09573 2.1061,-1.17885 0.7769,-0.39954 0.9987,-0.87873 0.6851,-1.48005 -0.08,-0.15433 -0.1463,-0.31604 -0.1463,-0.35936 0,-0.0749 0.6023,-0.4866 0.7119,-0.4866 0.029,0 0.3669,0.57142 0.7518,1.26984 0.3849,0.69841 0.9404,1.677 1.2344,2.17462 0.2941,0.49763 0.5346,0.95264 0.5346,1.01114 0,0.11604 -0.5013,0.44249 -0.6796,0.44249 -0.061,0 -0.2037,-0.15783 -0.3176,-0.35074 -0.2485,-0.42108 -0.5432,-0.55307 -0.965,-0.43212 -0.2779,0.0797 -2.0903,1.07228 -4.5522,2.4931 -0.4849,0.27985 -1.3005,0.74324 -1.8123,1.0298 -0.5119,0.28653 -1.3053,0.73158 -1.7634,0.98898 -0.4579,0.25739 -1.2294,0.6897 -1.7143,0.96066 -1.5024,0.83959 -1.9847,1.15921 -2.1655,1.43503 -0.1673,0.25522 -0.1672,0.28627 0,0.76417 l 0.177,0.49817 -0.2806,0.22446 c -0.1542,0.12347 -0.3321,0.2247 -0.3954,0.22496 -0.063,0 -0.3675,-0.4734 -0.6763,-1.0526 z m 194.8783,-0.76626 c -0.2988,-0.16212 -0.3322,-0.36063 -0.1224,-0.72766 0.1716,-0.30029 0.1809,-0.68347 0.022,-0.88689 -0.1628,-0.20753 -0.7267,-0.58346 -2.5684,-1.712 -0.8621,-0.52826 -2.2507,-1.37954 -3.0858,-1.89173 -0.8351,-0.51221 -1.8931,-1.15986 -2.3512,-1.43925 -0.4579,-0.27938 -1.2073,-0.74235 -1.6653,-1.02879 -2.491,-1.55807 -2.711,-1.62285 -3.2611,-0.96056 l -0.3385,0.40754 -0.3554,-0.21961 c -0.1953,-0.12078 -0.3553,-0.25902 -0.3553,-0.30719 0,-0.0482 0.2778,-0.51848 0.6174,-1.04511 0.3394,-0.52662 0.9366,-1.49879 1.3271,-2.16035 l 0.7097,-1.20286 0.2968,0.17426 c 0.4645,0.27268 0.4924,0.34893 0.2798,0.76589 -0.2575,0.505 -0.2452,0.67228 0.075,1.01989 0.1482,0.16068 1.6139,1.11405 3.2572,2.11859 1.6434,1.00456 3.2523,1.9905 3.5756,2.191 0.3233,0.20048 0.9845,0.60781 1.4695,0.90518 0.4848,0.29738 1.3445,0.82761 1.9102,1.17831 1.8643,1.1557 2.0414,1.19426 2.5687,0.55947 l 0.3318,-0.39942 0.362,0.17267 c 0.1992,0.095 0.3621,0.23312 0.3621,0.30703 0,0.074 -0.3007,0.60575 -0.6683,1.18189 -0.3675,0.57613 -0.9483,1.52141 -1.2906,2.10061 -0.3423,0.5792 -0.6697,1.05133 -0.7276,1.04917 -0.058,-0.003 -0.2266,-0.0696 -0.3748,-0.15008 z m -197.7166,-4.2784 c -0.3054,-0.55248 -0.7638,-1.35716 -1.0188,-1.78818 -0.7448,-1.25968 -1.0039,-1.72824 -0.9686,-1.75168 0.6743,-0.44702 0.7911,-0.44938 1.0557,-0.0213 0.3796,0.61419 0.771,0.60463 1.9204,-0.0469 0.4826,-0.27362 1.2522,-0.70845 1.7102,-0.9663 0.4579,-0.25784 1.6702,-0.94347 2.6939,-1.52363 2.5705,-1.45673 3.1898,-1.80599 4.2614,-2.40339 1.6911,-0.94271 2.3626,-1.38601 2.4507,-1.61798 0.093,-0.24373 -0.013,-0.75356 -0.2054,-0.98462 -0.087,-0.10402 -0.087,-0.17062 0,-0.27385 0.1192,-0.14358 0.6802,-0.40661 0.7296,-0.3421 0.016,0.0207 0.3087,0.54463 0.6506,1.16423 0.3418,0.61961 0.9005,1.601 1.2414,2.18089 0.341,0.57986 0.6199,1.07144 0.6199,1.09238 0,0.0209 -0.1588,0.13182 -0.3531,0.24638 l -0.3529,0.20829 -0.4131,-0.44352 c -0.2271,-0.24392 -0.4981,-0.44309 -0.6022,-0.44256 -0.2336,7.9e-4 -1.0032,0.35536 -1.8778,0.86428 -0.904,0.52608 -3.6305,2.07006 -7.9604,4.50801 -2.3151,1.30349 -2.547,1.48007 -2.547,1.93943 0,0.18594 0.065,0.46279 0.1433,0.61522 0.1289,0.24933 0.1265,0.29178 -0.024,0.42337 -0.092,0.0805 -0.2644,0.19617 -0.3825,0.25718 -0.2022,0.10444 -0.2472,0.0522 -0.77,-0.89356 z m -9.2806,-35.89067 c -0.039,-0.0385 -0.07,-1.20322 -0.07,-2.58835 v -2.51844 l 0.3019,-0.0604 c 0.455,-0.091 0.6771,0.0736 0.6809,0.50465 0,0.3986 0.1279,0.61416 0.4556,0.78875 0.2452,0.13052 6.1231,0.15629 11.1341,0.0488 3.4635,-0.0742 3.3931,-0.0566 3.4872,-0.87645 l 0.055,-0.47885 0.4653,-0.0298 0.4653,-0.0298 0.02,2.16055 c 0.011,1.18827 0.023,2.34787 0.024,2.57685 l 0.01,0.41635 -0.4312,0.0309 c -0.4973,0.0355 -0.5938,-0.0595 -0.5959,-0.58702 0,-0.27144 -0.065,-0.41031 -0.2597,-0.56328 -0.2554,-0.20098 -0.3262,-0.20302 -6.9798,-0.20069 -3.6969,0.002 -6.8932,0.0421 -7.1027,0.0908 -0.5103,0.11836 -0.6468,0.27718 -0.7277,0.84701 -0.068,0.47785 -0.07,0.48049 -0.4629,0.50944 -0.217,0.016 -0.4261,-0.003 -0.4646,-0.0408 z m 201.3209,-3.16667 c -0.01,-1.24217 -0.022,-2.40176 -0.024,-2.57687 -0.01,-0.30988 0.01,-0.31916 0.4466,-0.3477 l 0.4521,-0.0293 0.065,0.48966 c 0.049,0.36979 0.1303,0.54168 0.3317,0.70215 l 0.2667,0.2125 6.8573,-0.0662 c 3.944,-0.0381 6.9862,-0.10654 7.1606,-0.16112 0.3542,-0.11088 0.5135,-0.3775 0.5513,-0.9224 l 0.027,-0.39184 0.4654,-0.0298 0.4653,-0.0298 0.022,1.86664 c 0.012,1.02666 0.023,2.20829 0.024,2.62585 v 0.75921 h -0.4409 c -0.3969,0 -0.4437,-0.0244 -0.4707,-0.2449 -0.016,-0.1347 -0.077,-0.39244 -0.1331,-0.57277 -0.1924,-0.61093 -0.082,-0.60201 -6.7572,-0.54746 -3.3059,0.027 -6.4187,0.0739 -6.9174,0.10404 -1.1153,0.0676 -1.3103,0.19113 -1.3894,0.88021 l -0.055,0.47884 -0.4653,0.0299 -0.4653,0.0298 -0.019,-2.25849 z m -201.3281,-2.60089 c -0.043,-0.11268 -0.088,-3.38695 -0.067,-4.8251 0,-0.18932 0.056,-0.22042 0.3756,-0.22042 0.4888,0 0.6073,0.13775 0.6073,0.70533 0,0.43841 0.016,0.47022 0.2493,0.47022 0.222,0 5.0068,-2.32662 4.9264,-2.39546 -0.2347,-0.20094 -4.7548,-2.40467 -4.9324,-2.40467 -0.2037,0 -0.2433,0.0467 -0.2433,0.2875 0,0.55324 -0.1572,0.79007 -0.5243,0.79007 -0.1832,0 -0.3737,-0.0551 -0.423,-0.12245 -0.049,-0.0673 -0.087,-1.06917 -0.086,-2.22627 l 0.01,-2.10382 0.2746,-0.0966 c 0.3971,-0.13966 0.5876,0.0258 0.7211,0.6259 0.1927,0.86756 0.3696,0.99144 4.1842,2.9303 1.9111,0.97132 2.416,1.18883 2.7592,1.18883 0.4126,0 0.4931,-0.0354 2.4449,-1.0752 0.2694,-0.14352 1.2612,-0.67099 2.2041,-1.17216 3.0464,-1.61924 3.4287,-1.89223 3.4287,-2.44844 0,-0.32885 0.1644,-0.49661 0.4849,-0.49468 0.5148,0.004 0.514,-7.9e-4 0.5416,2.50603 0.017,1.5852 -0.01,2.39195 -0.083,2.5102 -0.1277,0.2044 -0.6712,0.2372 -0.8266,0.0499 -0.057,-0.0684 -0.1173,-0.32188 -0.1345,-0.56329 -0.029,-0.40316 -0.051,-0.43666 -0.2758,-0.4113 -0.3247,0.0367 -5.2112,2.59066 -5.118,2.67503 0.196,0.17733 4.6183,2.33202 4.8774,2.3764 0.3889,0.0666 0.4748,-0.003 0.5875,-0.47482 0.084,-0.3493 0.1289,-0.39524 0.4184,-0.42302 0.5953,-0.0572 0.6059,-0.0175 0.6059,2.28581 0,2.28232 0.022,2.20263 -0.5983,2.20263 -0.3089,0 -0.4793,-0.26335 -0.4793,-0.74081 0,-0.554 -0.554,-0.9339 -3.7637,-2.58127 -2.5057,-1.28595 -3.1454,-1.57602 -3.4754,-1.57602 -0.3352,0 -0.9831,0.30446 -3.7755,1.7742 -1.854,0.97579 -3.5065,1.90676 -3.6723,2.06881 -0.1657,0.16205 -0.3013,0.39602 -0.3013,0.51992 0,0.4256 -0.1003,0.53517 -0.4898,0.53517 -0.2388,0 -0.3909,-0.0523 -0.4271,-0.14646 z m 201.3145,-1.09438 c -0.036,-0.0359 -0.066,-1.20653 -0.066,-2.60137 v -2.53605 l 0.4653,0.0299 0.4653,0.0298 0.054,0.46645 c 0.1008,0.87656 -0.5122,0.81116 7.2732,0.77596 3.9629,-0.0179 7.0317,-0.0709 7.241,-0.12511 0.4271,-0.11057 0.4715,-0.16952 0.618,-0.81992 l 0.1111,-0.4933 h 0.4335 0.4333 v 2.59598 2.59601 l -0.2303,0.0326 c -0.1267,0.0179 -0.3361,0.006 -0.4654,-0.0264 -0.198,-0.0497 -0.2349,-0.11938 -0.2349,-0.44347 0,-0.2648 -0.074,-0.46975 -0.2354,-0.65822 -0.2152,-0.25014 -0.3016,-0.27623 -1.0041,-0.30295 -1.4106,-0.0536 -13.3052,0.13819 -13.4828,0.21746 -0.2454,0.10949 -0.4617,0.56875 -0.4617,0.98014 0,0.34485 0,0.34774 -0.4246,0.34774 -0.2335,0 -0.4539,-0.0294 -0.4898,-0.0653 z m -0.085,-8.06554 c -0.011,-1.23921 -0.022,-2.41843 -0.024,-2.62048 -0.01,-0.31285 0.029,-0.3722 0.2254,-0.39996 0.1267,-0.0179 0.3362,-0.006 0.4654,0.0264 0.1996,0.0501 0.2349,0.11866 0.2349,0.45648 0,0.31113 0.064,0.46143 0.2941,0.69162 l 0.2941,0.2941 6.5388,-0.0602 c 3.5963,-0.0331 6.769,-0.0837 7.0504,-0.11244 0.6818,-0.0696 0.9013,-0.26325 0.9877,-0.87146 l 0.069,-0.48981 0.4646,-0.0298 0.4646,-0.0298 0.02,2.20952 c 0.011,1.21523 0.022,2.37482 0.024,2.57686 l 0.01,0.36736 h -0.4897 -0.4898 l -0.054,-0.46644 c -0.088,-0.77115 -0.1627,-0.80307 -1.9333,-0.83367 -0.8469,-0.0146 -4.0379,0.007 -7.0913,0.049 l -5.5515,0.0756 -0.2527,0.23749 c -0.1709,0.16061 -0.2527,0.34037 -0.2527,0.55527 0,0.54008 -0.077,0.6277 -0.5493,0.6277 h -0.4303 z m -176.0174,-35.26235 c -0.2311,-0.17755 -0.2369,-0.20505 -0.1084,-0.51213 0.2111,-0.50463 0.2396,-1.08231 0.073,-1.48116 -0.1366,-0.32689 -2.1069,-3.69916 -3.1777,-5.43869 -0.2428,-0.39471 -0.5473,-0.78692 -0.6766,-0.8716 -0.1761,-0.11534 -1.0505,-0.2216 -3.4873,-0.42375 -5.0017,-0.41491 -4.9718,-0.41529 -5.4141,0.0677 -0.3111,0.33958 -0.3412,0.35079 -0.6254,0.23301 -0.4829,-0.2 -0.409,-0.55001 0.3714,-1.75714 0.3686,-0.57022 0.8392,-1.32331 1.0456,-1.67352 0.5831,-0.98917 0.7754,-1.27212 0.8651,-1.27284 0.1773,-0.002 0.6518,0.4132 0.6514,0.56929 -10e-5,0.0906 -0.088,0.3091 -0.1959,0.4855 -0.2548,0.41798 -0.247,0.49723 0.06,0.61424 0.181,0.0688 4.856,0.58343 5.3,0.58343 0.1338,0 -2.4319,-4.24862 -2.7445,-4.54469 l -0.2991,-0.28333 -0.2863,0.35681 c -0.3118,0.38862 -0.6375,0.46231 -0.897,0.20287 -0.2424,-0.24238 -0.1872,-0.44865 0.3152,-1.17793 0.2581,-0.37455 0.7311,-1.13208 1.0513,-1.68337 0.3202,-0.55132 0.658,-1.02649 0.7509,-1.05596 0.2224,-0.0706 0.6676,0.22668 0.6676,0.4459 0,0.095 -0.069,0.33797 -0.1535,0.53997 -0.1686,0.4035 -0.1217,0.9752 0.1188,1.44489 0.076,0.14842 0.5248,0.91987 0.9974,1.71434 0.4727,0.79449 1.139,1.91977 1.4807,2.50066 0.6773,1.1512 0.998,1.48685 1.5529,1.62509 0.5764,0.14354 7.8671,0.64125 8.2693,0.56449 0.2423,-0.0462 0.4322,-0.16595 0.57,-0.35954 0.2447,-0.34373 0.5923,-0.38101 0.879,-0.0943 0.1078,0.10776 0.196,0.23371 0.196,0.27991 0,0.0462 -0.2578,0.476 -0.5727,0.95513 -0.3149,0.47913 -0.8691,1.36508 -1.2314,1.96879 -0.6886,1.14731 -0.8882,1.31713 -1.2934,1.10025 -0.2853,-0.1527 -0.294,-0.37236 -0.035,-0.88071 l 0.1985,-0.38934 -0.2617,-0.0995 c -0.2586,-0.0984 -5.818,-0.60204 -5.8174,-0.52706 10e-5,0.004 0.4165,0.7094 0.9254,1.56741 1.3289,2.24015 1.8293,2.99218 2.1431,3.22019 l 0.2765,0.20092 0.2623,-0.31918 c 0.145,-0.1764 0.3542,-0.3188 0.4675,-0.31831 0.2373,7.9e-4 0.5295,0.28664 0.5295,0.51738 0,0.087 -0.2975,0.61639 -0.6612,1.17641 -0.3637,0.56001 -0.8376,1.33293 -1.0531,1.71759 -0.4272,0.76251 -0.5939,0.84546 -1.0279,0.51193 z m 166.264,-0.6188 c -0.052,-0.0659 -0.361,-0.60478 -0.6871,-1.19745 -0.3259,-0.59267 -0.861,-1.51673 -1.1889,-2.05345 -0.328,-0.53673 -0.5963,-1.02596 -0.5963,-1.08719 0,-0.10934 0.7562,-0.50377 0.8164,-0.42581 0.016,0.0219 0.1321,0.18652 0.256,0.36584 0.1239,0.1793 0.3186,0.36053 0.4327,0.40273 0.4035,0.14924 0.1285,0.29476 7.2625,-3.84361 1.2931,-0.75011 2.814,-1.62985 3.3798,-1.95497 2.2292,-1.28108 2.3194,-1.37778 2.0198,-2.16239 -0.087,-0.22845 -0.1586,-0.4476 -0.1586,-0.487 0,-0.0733 0.5866,-0.45957 0.6989,-0.46024 0.034,-2e-4 0.355,0.52488 0.7129,1.16684 0.3578,0.64196 0.936,1.63793 1.2848,2.21326 0.3489,0.57534 0.6159,1.07503 0.5933,1.11041 -0.023,0.0354 -0.205,0.15175 -0.4056,0.25858 l -0.3646,0.19422 -0.1579,-0.24108 c -0.5015,-0.76642 -0.9285,-0.77254 -2.1793,-0.0312 -1.013,0.60043 -2.1647,1.26917 -4.4439,2.58031 -4.1434,2.3836 -6.2838,3.65093 -6.4899,3.8429 -0.2543,0.23667 -0.2833,0.61448 -0.084,1.09156 0.1586,0.37933 0.1209,0.46499 -0.298,0.67957 -0.2401,0.123 -0.3295,0.13146 -0.4029,0.0382 z m -3.4029,-5.87369 c -0.4874,-0.89553 -1.619,-2.82908 -1.9433,-3.32038 -0.1697,-0.25706 -0.1692,-0.25807 0.182,-0.46531 0.3718,-0.21939 0.6347,-0.26795 0.6347,-0.11726 0,0.0497 0.1142,0.22608 0.2536,0.39185 0.3169,0.37656 0.7925,0.40199 1.3628,0.0729 0.2155,-0.12438 0.9869,-0.57189 1.7143,-0.99445 0.7274,-0.42255 1.9951,-1.15731 2.8171,-1.63278 0.822,-0.47547 2.1666,-1.25343 2.9878,-1.7288 0.8213,-0.47536 2.061,-1.19224 2.7551,-1.59304 0.694,-0.4008 1.33,-0.8323 1.4136,-0.95888 0.1521,-0.23058 0.1366,-0.3615 -0.1428,-1.21004 -0.038,-0.11619 0.044,-0.22736 0.2736,-0.36699 0.1806,-0.11017 0.3559,-0.20048 0.3892,-0.20068 0.033,-2e-4 0.3822,0.58373 0.775,1.29763 0.3928,0.7139 0.8318,1.47433 0.9754,1.68984 0.1437,0.21552 0.4033,0.64335 0.5768,0.95075 l 0.3155,0.5589 -0.4171,0.21277 -0.417,0.21277 -0.1509,-0.23075 c -0.5037,-0.77013 -0.8881,-0.76039 -2.3062,0.0585 -0.9583,0.55339 -3.6809,2.12724 -4.751,2.7466 -0.2963,0.1715 -1.2221,0.70792 -2.0572,1.19204 -0.8352,0.48414 -2.0035,1.15757 -2.5961,1.49653 -1.3495,0.77183 -1.6164,1.0105 -1.6164,1.44581 0,0.18117 0.065,0.4541 0.1434,0.60653 0.1289,0.24935 0.1265,0.29179 -0.024,0.42337 -0.157,0.13688 -0.5576,0.37024 -0.6266,0.36501 -0.016,-0.002 -0.2514,-0.40736 -0.5207,-0.90236 z m -132.8687,-28.34605 c -0.1161,-0.0814 -0.2601,-0.2393 -0.3199,-0.35103 -0.095,-0.17714 -0.052,-0.25764 0.3357,-0.629 0.6661,-0.63821 0.6768,-0.87989 0.2621,-5.93902 -0.1425,-1.73977 -0.2214,-2.29194 -0.3608,-2.52791 -0.1988,-0.33656 -0.2639,-0.37984 -3.0196,-2.00978 -1.0776,-0.63735 -2.3523,-1.39348 -2.8328,-1.68029 -1.1541,-0.68904 -1.5244,-0.79951 -1.9691,-0.58747 -0.4082,0.19469 -0.5804,0.14234 -0.7315,-0.22237 -0.1652,-0.39907 -0.011,-0.58375 0.9082,-1.0903 0.4312,-0.23744 1.2673,-0.75171 1.8583,-1.14281 1.3258,-0.87749 1.4381,-0.91222 1.6716,-0.51689 0.2297,0.38883 0.1571,0.58708 -0.3242,0.88455 -0.2161,0.13351 -0.3928,0.26874 -0.3928,0.30051 0,0.13561 0.5304,0.51516 1.9102,1.36668 0.8082,0.49878 1.7491,1.08051 2.0908,1.29273 0.3418,0.21223 0.6446,0.3625 0.6733,0.33395 0.051,-0.0512 -0.2264,-4.33102 -0.3189,-4.91714 -0.026,-0.16574 -0.1058,-0.38098 -0.177,-0.47828 -0.1182,-0.16169 -0.1497,-0.16404 -0.366,-0.0273 -0.4402,0.27829 -0.6476,0.29214 -0.8658,0.0578 -0.373,-0.40036 -0.2737,-0.62331 0.4575,-1.02609 0.3637,-0.20033 1.1592,-0.69028 1.7676,-1.08873 0.6085,-0.39848 1.1793,-0.71047 1.2683,-0.69333 0.089,0.0171 0.2445,0.17263 0.3454,0.34553 l 0.1836,0.31435 -0.4722,0.44043 -0.4721,0.44044 0.013,1.59598 c 0.015,2.06442 0.2982,5.41594 0.4901,5.82094 0.08,0.16857 0.242,0.39433 0.3602,0.50169 0.1183,0.10736 1.4052,0.88953 2.8599,1.73817 1.4547,0.84864 2.8099,1.64823 3.0116,1.77686 0.4969,0.31691 1.4273,0.72185 1.6587,0.72185 0.1037,0 0.3157,-0.0658 0.4714,-0.14626 0.341,-0.17636 0.5255,-0.12016 0.6737,0.20524 0.1903,0.41741 0.1321,0.50794 -0.5989,0.93269 -0.3906,0.22696 -1.2833,0.77985 -1.9838,1.22864 -0.7003,0.44879 -1.3715,0.8161 -1.4913,0.81625 -0.1464,1.9e-4 -0.2714,-0.10307 -0.3807,-0.31465 l -0.1629,-0.3149 0.4228,-0.36414 c 0.513,-0.44184 0.5009,-0.46437 -0.6279,-1.16356 -1.2752,-0.78998 -4.0275,-2.42454 -4.0505,-2.40561 -0.056,0.0463 0.374,5.05054 0.4607,5.35967 0.141,0.50169 0.3246,0.63388 0.6065,0.43647 0.122,-0.0855 0.3172,-0.15545 0.4337,-0.15545 0.2742,0 0.5504,0.41278 0.4529,0.67663 -0.042,0.11032 -0.5872,0.50285 -1.2389,0.89 -0.6411,0.38094 -1.3682,0.83853 -1.6155,1.01685 -0.6381,0.45998 -0.6406,0.46078 -0.874,0.29729 z m 100.8841,-3.75032 c -0.6735,-0.41944 -1.6543,-1.01457 -2.1796,-1.32251 -0.5254,-0.30793 -0.955,-0.61296 -0.9547,-0.67783 0,-0.0649 0.1058,-0.24957 0.2346,-0.41044 l 0.2339,-0.2925 0.3566,0.17005 c 0.4788,0.22833 0.7809,0.21409 1.0687,-0.0504 0.1319,-0.12123 1.2227,-1.87353 2.4239,-3.89399 1.2012,-2.02046 2.6986,-4.53439 3.3274,-5.5865 1.7366,-2.90533 1.707,-2.81162 1.0612,-3.36445 -0.4265,-0.36513 -0.4561,-0.56873 -0.1417,-0.9766 0.1561,-0.20223 -0.081,-0.31851 2.4066,1.17991 0.6196,0.3732 1.358,0.8039 1.6409,0.95713 0.2829,0.15321 0.5143,0.3172 0.5143,0.36441 0,0.10822 -0.3076,0.59614 -0.4305,0.68263 -0.051,0.0357 -0.2494,-0.0195 -0.4415,-0.12246 -0.4817,-0.25813 -0.647,-0.23704 -1.0268,0.13105 -0.1808,0.1751 -1.2462,1.86127 -2.3677,3.74704 -1.1216,1.88576 -2.6505,4.45046 -3.3976,5.6993 -0.7579,1.26691 -1.3831,2.42211 -1.4141,2.61329 -0.045,0.27596 -0.01,0.38845 0.1799,0.57804 0.1294,0.12946 0.3172,0.2812 0.4173,0.33721 0.2128,0.11913 0.1627,0.46988 -0.1139,0.79639 -0.1724,0.20349 -0.1748,0.20255 -1.3972,-0.55879 z m -89.9281,-3.26616 c -0.1079,-0.17685 -0.1963,-0.35638 -0.1965,-0.39895 -2e-4,-0.0426 0.1759,-0.24514 0.3915,-0.45015 0.2155,-0.20502 0.3918,-0.44713 0.3918,-0.53802 0,-0.31503 -0.2712,-0.80719 -1.7338,-3.1468 -0.8084,-1.2931 -2.1666,-3.4752 -3.0183,-4.84912 -0.8517,-1.37391 -1.7509,-2.82295 -1.9983,-3.22008 -0.4614,-0.74058 -0.8935,-1.18821 -1.147,-1.18821 -0.079,0 -0.3212,0.0908 -0.5387,0.20172 -0.2932,0.1496 -0.4287,0.17407 -0.5243,0.0947 -0.1391,-0.11542 -0.3966,-0.6742 -0.3347,-0.72621 0.021,-0.0174 0.4268,-0.25969 0.9024,-0.53839 0.4758,-0.2787 1.4127,-0.8628 2.0824,-1.29797 0.6859,-0.44586 1.279,-0.76757 1.3587,-0.73702 0.077,0.0298 0.2129,0.19277 0.3004,0.3621 l 0.1592,0.3079 -0.399,0.34153 c -0.6505,0.55685 -0.5909,0.76627 0.8743,3.0692 0.4372,0.68747 3.0807,4.94017 5.0415,8.11089 1.141,1.8451 1.3277,1.98642 2.1022,1.59129 0.3542,-0.1807 0.385,-0.18214 0.5224,-0.0245 0.1721,0.19746 0.3969,0.6144 0.3504,0.64987 -0.018,0.0136 -0.3188,0.19388 -0.6691,0.40057 -0.9691,0.57199 -2.6578,1.62714 -2.9878,1.86682 -0.6377,0.46321 -0.7139,0.47295 -0.9297,0.1188 z m 31.1125,-9.73392 c -0.033,-0.0852 -0.06,-0.28205 -0.06,-0.43738 0,-0.3282 0.2253,-0.48525 0.6961,-0.48525 0.5154,0 0.9999,-0.61334 2.013,-2.54847 2.2412,-4.28042 2.3101,-4.42728 2.2578,-4.81635 -0.046,-0.34147 -3.2441,-6.60057 -3.6999,-7.2406 -0.1113,-0.15637 -0.3097,-0.30647 -0.4408,-0.33354 -0.1311,-0.0271 -0.3486,-0.0722 -0.4834,-0.10006 -0.2109,-0.0439 -0.2449,-0.1041 -0.2449,-0.43505 0,-0.21131 0.047,-0.41297 0.1036,-0.44815 0.081,-0.05 3.7886,-0.0905 4.8681,-0.0532 0.1885,0.006 0.2203,0.0614 0.2203,0.37989 0,0.48874 -0.1377,0.60736 -0.7053,0.60736 -0.4534,0 -0.4702,0.0101 -0.4702,0.28381 0,0.16681 0.4793,1.24059 1.1625,2.60436 l 1.1624,2.32053 0.3434,-0.62063 c 0.7774,-1.40513 2.0333,-3.97278 2.0884,-4.2697 0.058,-0.31681 0.057,-0.31837 -0.3407,-0.31837 -0.2689,0 -0.4636,-0.0641 -0.5954,-0.19592 -0.2303,-0.23029 -0.2455,-0.38478 -0.061,-0.63555 0.1236,-0.16909 0.2922,-0.18291 2.1912,-0.17947 1.1314,0.003 2.1071,0.0346 2.1681,0.0723 0.06,0.0377 0.1109,0.24145 0.1109,0.45277 0,0.3404 -0.031,0.3905 -0.2694,0.4395 -0.7801,0.16015 -1.011,0.26792 -1.2846,0.59989 -0.2765,0.33547 -2.2983,4.09204 -2.8861,5.36277 -0.2906,0.62813 -0.3501,1.1914 -0.1743,1.65077 0.098,0.25618 2.7999,5.41781 3.3206,6.34355 0.354,0.62949 0.8009,1.07759 1.0746,1.07759 0.3884,0 0.6111,0.17676 0.6111,0.48524 0,0.61735 0.1041,0.59234 -2.466,0.59234 -1.4306,0 -2.4211,-0.0396 -2.5366,-0.10141 -0.1303,-0.0697 -0.1894,-0.20544 -0.1894,-0.43505 0,-0.39346 0.097,-0.46959 0.6857,-0.53905 0.3693,-0.0435 0.4368,-0.0837 0.4161,-0.24744 -0.023,-0.18419 -2.4164,-5.00758 -2.5645,-5.16879 -0.117,-0.12751 -2.4565,4.56363 -2.4821,4.97733 -0.022,0.35834 -0.013,0.36893 0.4181,0.47514 0.4014,0.0989 0.4437,0.13776 0.472,0.4334 0.057,0.59535 0.017,0.60587 -2.2858,0.60587 -1.8097,0 -2.0915,-0.0204 -2.1431,-0.15496 z m 13.009,0.0189 c -0.029,-0.0766 -0.04,-0.2864 -0.022,-0.46626 0.03,-0.31102 0.055,-0.33037 0.5117,-0.3952 0.5699,-0.0809 0.7287,-0.21731 0.847,-0.72759 0.1125,-0.48487 0.113,-13.06661 0,-13.64919 -0.099,-0.51185 -0.3041,-0.69153 -0.7887,-0.69153 -0.4508,0 -0.5886,-0.14261 -0.5886,-0.60897 v -0.37385 l 2.6204,0.026 2.6206,0.026 0.031,0.32478 c 0.041,0.43094 -0.1236,0.60587 -0.5712,0.60587 -0.2173,0 -0.464,0.0769 -0.6003,0.18723 l -0.2312,0.18724 -0.026,7.05429 -0.026,7.05429 0.2256,0.2622 c 0.166,0.19301 0.3479,0.27598 0.689,0.31443 0.4941,0.0557 0.6144,0.217 0.5423,0.72671 l -0.033,0.23037 -2.5739,0.0261 c -2.1516,0.0218 -2.5827,0.004 -2.6274,-0.11313 z m 5.9051,0.0723 c -0.089,-0.0887 -0.083,-0.64235 0.01,-0.77876 0.04,-0.0593 0.2658,-0.13309 0.5028,-0.16404 0.2464,-0.0323 0.5188,-0.14441 0.6366,-0.26226 0.2049,-0.20475 0.2063,-0.24661 0.2357,-6.88923 0.016,-3.67576 0,-6.87376 -0.032,-7.10662 -0.079,-0.5504 -0.3333,-0.80112 -0.8111,-0.80112 -0.4691,0 -0.6073,-0.13819 -0.6073,-0.60737 v -0.37225 h 2.645 2.645 v 0.37225 c 0,0.46918 -0.1383,0.60737 -0.6074,0.60737 -0.4082,0 -0.722,0.23507 -0.8138,0.60976 -0.03,0.1226 -0.041,3.31852 -0.027,7.10205 0.028,6.8263 0.03,6.88071 0.2322,7.0836 0.1207,0.12072 0.4015,0.23264 0.6856,0.27328 l 0.4814,0.0689 v 0.43962 0.43961 l -2.5536,0.026 c -1.4045,0.0143 -2.5837,-0.004 -2.6205,-0.0408 z m -55.1545,199.80341 c 0.3435,-0.77863 0.7975,-1.7904 1.009,-2.24837 0.6095,-1.31894 0.8854,-1.97422 0.8817,-2.09353 0,-0.0608 -0.3434,-0.262 -0.7591,-0.44701 -1.4099,-0.62747 -5.8428,-2.84121 -7.2703,-3.63063 -0.7813,-0.43205 -1.48,-0.7742 -1.5526,-0.76035 -0.073,0.0139 -0.6631,0.95094 -1.3121,2.08239 -0.6489,1.13147 -1.3451,2.34375 -1.547,2.69396 -0.202,0.35022 -0.3497,0.66587 -0.3285,0.70146 0.212,0.35433 9.8496,5.22843 10.1668,5.14175 0.048,-0.0131 0.3687,-0.66102 0.7121,-1.43967 z m 99.2683,0.54275 c 2.7127,-1.27545 7.6905,-3.88613 7.9999,-4.19557 0.087,-0.0867 0.025,-0.26672 -0.2553,-0.75072 -0.2031,-0.35021 -0.8752,-1.5184 -1.4937,-2.59598 -1.3516,-2.35488 -1.3795,-2.40008 -1.477,-2.40008 -0.042,0 -0.6601,0.32512 -1.3725,0.72249 -1.7577,0.98048 -4.0548,2.15371 -6.2912,3.21319 -1.0237,0.48496 -1.8802,0.90041 -1.9032,0.92323 -0.023,0.0228 0.073,0.29443 0.2128,0.60361 0.1402,0.30918 0.4749,1.04705 0.7439,1.63972 0.269,0.59268 0.643,1.43024 0.8311,1.86128 0.8621,1.97542 0.8347,1.92828 1.072,1.85371 0.1204,-0.0378 0.9903,-0.43154 1.9332,-0.87488 z m -110.887,-5.80346 c 0.2798,-0.47144 0.6736,-1.1437 0.8749,-1.49391 0.2012,-0.35022 0.5844,-1.01146 0.8513,-1.46943 0.267,-0.45797 0.6022,-1.0363 0.7447,-1.28517 l 0.2594,-0.45249 -1.6865,-1.01613 c -2.1919,-1.32069 -4.783,-3.01729 -6.6943,-4.38353 -0.404,-0.2887 -0.7481,-0.50911 -0.765,-0.48981 -0.016,0.0193 -0.4409,0.60815 -0.9425,1.30858 -0.5015,0.70043 -1.3229,1.83395 -1.8249,2.51892 -0.5022,0.68498 -0.9128,1.2801 -0.9125,1.32248 0,0.14998 5.1286,3.62726 7.1997,4.88248 1.2917,0.78289 2.35,1.41505 2.369,1.41511 0.01,4e-5 0.2468,-0.38565 0.5267,-0.8571 z m 121.9568,-0.16964 c 2.3627,-1.42988 5.4593,-3.47834 7.6134,-5.03656 0.2745,-0.19854 0.2741,-0.24809 -0.01,-0.62906 -0.1256,-0.17151 -0.6013,-0.8188 -1.0571,-1.43841 -0.4558,-0.61961 -1.1961,-1.6453 -1.6451,-2.27934 -0.4491,-0.63402 -0.8458,-1.17099 -0.8818,-1.19324 -0.036,-0.0222 -0.3689,0.1823 -0.7397,0.45457 -0.3708,0.27226 -1.5811,1.10026 -2.6898,1.83999 -1.8696,1.24759 -2.7998,1.8394 -4.8752,3.10206 l -0.8024,0.48814 0.2517,0.43477 c 1.1018,1.90292 1.3738,2.37344 1.6961,2.93281 1.3095,2.27356 1.3702,2.35848 1.5983,2.23779 0.1176,-0.0622 0.809,-0.47333 1.5363,-0.91352 z m -131.8495,-6.6632 c 0.6681,-0.91991 0.9838,-1.35273 1.8587,-2.54702 0.1973,-0.26939 0.5383,-0.73712 0.7577,-1.03942 l 0.399,-0.5496 -1.2909,-0.9622 c -2.1226,-1.58195 -4.1042,-3.18251 -6.4653,-5.22194 l -0.962,-0.83091 -0.3789,0.38357 c -0.9512,0.96323 -3.8962,4.30652 -3.8539,4.3751 0.026,0.0421 0.7829,0.7042 1.682,1.4712 2.7404,2.33816 3.1615,2.68272 5.0609,4.14078 2.0706,1.58954 2.3495,1.79459 2.4169,1.7769 0.035,-0.009 0.3844,-0.45766 0.7758,-0.99646 z m 141.58,0.0612 c 2.3258,-1.74401 7.0483,-5.61745 7.6755,-6.29557 l 0.2138,-0.23109 -2.2189,-2.46327 -2.2189,-2.46328 -0.7868,0.71206 c -0.8922,0.80743 -3.7187,3.17017 -4.6138,3.85665 -0.3269,0.2507 -1.1969,0.91262 -1.9335,1.47095 -0.9115,0.69097 -1.316,1.05513 -1.2669,1.14032 0.132,0.2289 3.7898,5.24066 3.8248,5.24066 0.019,0 0.6151,-0.43534 1.3247,-0.96743 z m -149.8795,-9.30937 2.1083,-2.34186 -1.6347,-1.52031 c -1.5092,-1.40344 -4.0247,-3.91356 -5.6372,-5.62485 -0.368,-0.39063 -0.6897,-0.71023 -0.7148,-0.71023 -0.084,0 -4.6381,4.12788 -4.6381,4.20376 0,0.27103 8.0635,8.33537 8.3345,8.33537 0.041,0 1.0225,-1.05385 2.182,-2.34188 z m 158.9468,1.77972 c 1.458,-1.26565 7.6519,-7.57477 7.6519,-7.79431 0,-0.0816 -4.7943,-4.37859 -4.8854,-4.37859 -0.042,0 -0.3371,0.29748 -0.6565,0.66108 -0.9726,1.1072 -4.5061,4.66307 -5.8893,5.92652 -0.7171,0.65511 -1.3039,1.22412 -1.3039,1.2645 0,0.0895 4.2984,4.88296 4.3786,4.88296 0.031,0 0.3485,-0.25298 0.7046,-0.56216 z m -167.338,-10.5897 c 1.0881,-0.97927 1.999,-1.81387 2.0242,-1.85465 0.025,-0.0408 -0.3751,-0.55847 -0.8894,-1.15038 -1.7168,-1.97515 -3.4574,-4.0961 -4.8008,-5.84966 l -1.3305,-1.73663 -0.646,0.45765 c -0.3554,0.25172 -1.0429,0.74901 -1.5279,1.10509 -0.4848,0.35609 -1.3004,0.95073 -1.8123,1.32142 -0.5119,0.37068 -0.969,0.70649 -1.0159,0.74625 -0.073,0.0619 2.0552,2.96807 3.0414,4.15319 0.1794,0.21552 0.8258,0.99326 1.4364,1.72832 0.6106,0.73505 1.52,1.80713 2.0207,2.38237 l 0.9106,1.04591 0.3055,-0.2842 c 0.168,-0.15631 1.1959,-1.08542 2.284,-2.06468 z m 177.3762,0.14278 c 2.4443,-2.88666 5.6313,-6.9659 5.5252,-7.072 -0.024,-0.0242 -1.2234,-0.90125 -2.6647,-1.94881 l -2.6205,-1.90467 -0.9074,1.20189 c -1.6097,2.13242 -3.6365,4.61056 -5.3228,6.50817 -0.4485,0.5047 -0.802,0.95208 -0.7854,0.9942 0.016,0.0421 1.11,1.04969 2.4301,2.23908 l 2.4,2.16252 0.2311,-0.21435 c 0.1272,-0.1179 0.8986,-1.00262 1.7144,-1.96603 z m -187.1228,-8.04201 c 0.3393,-0.24108 1.0843,-0.78109 1.6553,-1.20004 0.5711,-0.41895 1.4227,-1.04005 1.8926,-1.38022 l 0.8544,-0.61851 -0.2484,-0.32561 c -1.1182,-1.46609 -3.6736,-5.31758 -5.2445,-7.90488 l -0.5142,-0.84683 -0.5544,0.31728 c -0.3051,0.17451 -0.841,0.48356 -1.1913,0.68678 -0.3502,0.20321 -0.9232,0.53509 -1.2734,0.73751 -0.3503,0.2024 -1.0226,0.59706 -1.4942,0.87699 l -0.8573,0.50897 0.2613,0.45862 c 1.3021,2.28433 5.8145,9.11453 6.0284,9.12491 0.038,0.002 0.3464,-0.1939 0.6857,-0.43497 z m 193.2695,0.21482 c 1.6171,-2.23573 3.6405,-5.30119 5.1544,-7.80939 0.9123,-1.51143 0.9156,-1.51908 0.7037,-1.66534 -0.2646,-0.18273 -1.7492,-1.05076 -4.6719,-2.73165 -0.3925,-0.22575 -0.7519,-0.38684 -0.7985,-0.35798 -0.047,0.0288 -0.3405,0.48234 -0.653,1.00776 -1.0823,1.8199 -2.9519,4.66565 -4.6137,7.02254 -0.3394,0.4814 -0.6172,0.90629 -0.6172,0.94421 0,0.0379 0.5179,0.43578 1.1511,0.88411 1.072,0.75914 3.0227,2.18127 3.6981,2.69605 0.367,0.27978 0.4507,0.28103 0.647,0.01 z m -199.314,-11.48076 c 0.3772,-0.22229 1.3417,-0.77659 2.1432,-1.23178 0.8014,-0.45518 1.479,-0.88401 1.5055,-0.95291 0.027,-0.0689 -0.1497,-0.46566 -0.3914,-0.88167 -0.7425,-1.27793 -2.861,-5.36977 -3.663,-7.0749 -0.4182,-0.889 -0.7731,-1.63429 -0.7886,-1.65619 -0.032,-0.0462 -0.4642,0.13165 -1.8914,0.77976 -0.5658,0.2569 -1.6017,0.71922 -2.3022,1.02738 -0.7004,0.30814 -1.3069,0.59017 -1.3477,0.62671 -0.1944,0.17389 2.8501,6.35212 4.7465,9.63196 l 0.3829,0.6624 0.4603,-0.26332 c 0.2532,-0.14481 0.7688,-0.44517 1.1459,-0.66744 z m 207.0009,-0.68793 c 1.8061,-3.26391 4.3498,-8.52193 4.192,-8.66515 -0.047,-0.0423 -0.6579,-0.32909 -1.3583,-0.63723 -1.2639,-0.55605 -2.9448,-1.31205 -3.9547,-1.77854 -0.2892,-0.13366 -0.542,-0.22685 -0.5618,-0.20711 -0.02,0.0197 -0.303,0.62797 -0.6295,1.35163 -0.6971,1.54513 -2.7379,5.53641 -3.6514,7.14107 -0.5732,1.00697 -0.6224,1.13497 -0.4762,1.23732 0.09,0.0628 1.0668,0.63269 2.1713,1.26647 1.1046,0.63379 2.2948,1.3185 2.645,1.5216 0.4841,0.28067 0.6641,0.34192 0.7507,0.25532 0.062,-0.0626 0.4555,-0.73108 0.8729,-1.48538 z m -213.2536,-9.58946 c 0.4218,-0.18263 1.2739,-0.56116 1.8935,-0.84116 1.3124,-0.5931 2.3559,-1.04939 2.6936,-1.17774 l 0.2383,-0.0907 -0.2803,-0.61597 c -1.0638,-2.33629 -2.6996,-6.52492 -3.4542,-8.84479 -0.1578,-0.48492 -0.3245,-0.91974 -0.3704,-0.96626 -0.047,-0.0473 -0.4649,0.0458 -0.9493,0.21131 -1.9703,0.67351 -4.5413,1.48966 -4.6927,1.48966 -0.2334,0 -0.145,0.36862 0.5562,2.31957 1.1628,3.23546 1.4795,4.04801 3.1326,8.03876 0.1838,0.44387 0.3637,0.80756 0.4,0.80818 0.036,7.9e-4 0.4109,-0.14827 0.8327,-0.3309 z m 218.2387,-0.5741 c 1.5602,-3.74648 2.2272,-5.46329 3.146,-8.09919 0.6645,-1.90619 0.7212,-2.16232 0.4781,-2.16232 -0.1513,0 -2.859,-0.86555 -4.895,-1.56471 l -1.0789,-0.37044 -0.5265,1.53084 c -0.87,2.52921 -2.3722,6.36028 -3.2844,8.37589 -0.1432,0.31651 -0.2461,0.58968 -0.2287,0.60707 0.017,0.0174 0.4931,0.22852 1.0572,0.46918 0.5641,0.24068 1.4886,0.6458 2.0542,0.90028 2.4,1.07963 2.699,1.20942 2.7972,1.21436 0.057,0.004 0.2732,-0.40257 0.4808,-0.90096 z m -220.6646,-11.67407 c 1.5768,-0.50751 2.8847,-0.94069 2.9067,-0.96261 0.023,-0.0219 -0.043,-0.30099 -0.1445,-0.62016 -0.9035,-2.84212 -1.5386,-5.12956 -2.2657,-8.15989 -0.2634,-1.09768 -0.4936,-2.01043 -0.5114,-2.02832 -0.06,-0.0611 -5.8252,1.15983 -5.8972,1.24911 -0.043,0.0539 0.672,3.16208 1.15,4.99526 0.4946,1.89787 1.8216,6.44936 1.8802,6.44936 0.01,0 1.3051,-0.41523 2.8819,-0.92275 z m 225.1041,-0.37525 c 0.6058,-1.94946 1.0352,-3.45773 1.5407,-5.4124 0.497,-1.92135 1.1245,-4.68302 1.0759,-4.73422 -0.049,-0.0517 -1.9944,-0.48718 -4.2115,-0.94284 -1.3694,-0.28146 -2.0788,-0.38845 -2.1219,-0.32002 -0.035,0.0566 -0.094,0.30489 -0.1305,0.55191 -0.1603,1.09464 -1.4686,6.00973 -2.3913,8.98293 l -0.3683,1.18665 3.0448,0.98633 c 1.6746,0.5425 3.0705,0.98934 3.1017,0.993 0.032,0.004 0.2385,-0.57744 0.4604,-1.29134 z m -229.1117,-11.23135 c 0.9428,-0.21089 2.111,-0.45569 2.5959,-0.54401 1.3307,-0.24238 1.2548,-0.1956 1.1762,-0.72442 -0.037,-0.25061 -0.2424,-1.35935 -0.456,-2.46387 -0.2136,-1.10453 -0.5804,-3.38927 -0.8151,-5.07722 -0.2346,-1.68795 -0.4415,-3.08185 -0.4598,-3.09754 -0.018,-0.0158 -0.3195,0.007 -0.6698,0.0508 -0.3502,0.0436 -1.6727,0.17451 -2.9388,0.2909 -1.2661,0.11639 -2.3124,0.22118 -2.3251,0.23288 -0.083,0.0773 0.6585,5.43672 1.1059,7.99206 0.6477,3.69963 0.6752,3.81443 0.902,3.76271 0.094,-0.0213 0.9417,-0.21136 1.8846,-0.42225 z m 232.1565,-0.74446 c 0.5483,-2.88596 1.0158,-5.81547 1.2878,-8.07015 0.165,-1.36747 0.2874,-2.49853 0.2719,-2.51346 -0.015,-0.015 -0.8436,-0.0993 -1.8404,-0.18751 -0.9967,-0.0882 -2.3632,-0.2241 -3.0367,-0.30204 -0.6735,-0.0779 -1.2925,-0.14211 -1.3755,-0.14259 -0.1232,-8e-4 -0.1832,0.30163 -0.3252,1.63997 -0.1829,1.72236 -0.8633,5.95163 -1.3017,8.09205 -0.2106,1.02771 -0.2339,1.27404 -0.1273,1.33992 0.072,0.0444 0.64,0.17694 1.2627,0.29456 0.6227,0.11759 1.9699,0.40298 2.9936,0.63417 1.0236,0.2312 1.8893,0.39163 1.9236,0.3565 0.034,-0.035 0.1546,-0.54875 0.2672,-1.14142 z m -234.3608,-11.36898 c 2.664,-0.24885 4.0722,-0.40951 4.1344,-0.47167 0.032,-0.0318 0.01,-0.6428 -0.058,-1.35777 -0.1733,-1.95286 -0.3997,-6.14521 -0.4015,-7.43339 0,-0.62557 -0.029,-1.34192 -0.064,-1.59188 l -0.062,-0.45451 h -2.9825 -2.9824 l 0.061,2.03272 c 0.095,3.15205 0.2454,6.00592 0.4001,7.61653 0.078,0.8082 0.1415,1.54658 0.1417,1.64087 2e-4,0.20795 -0.1877,0.20596 1.8125,0.0191 z m 236.0396,0.0298 c 0,-0.0674 0.064,-0.76166 0.1416,-1.5429 0.1693,-1.70211 0.3161,-4.41901 0.4063,-7.51858 l 0.067,-2.27761 h -3.1852 -3.1851 l -0.066,1.93474 c -0.1034,3.05686 -0.4165,7.65354 -0.5898,8.65622 l -0.044,0.25597 1.6848,0.1688 c 0.9265,0.0928 2.2357,0.22567 2.9091,0.29517 1.6546,0.17076 1.8613,0.17389 1.8616,0.0282 z m -232.4285,-14.1555 c 0.106,-2.74334 0.3728,-8.01055 0.4415,-8.71544 0.081,-0.82754 0.2258,-0.74027 -1.5055,-0.90505 -0.5927,-0.0564 -1.7977,-0.17221 -2.6778,-0.25733 -0.8802,-0.0851 -1.6128,-0.14016 -1.6282,-0.1223 -0.1415,0.16417 -0.4795,5.5217 -0.5938,9.41235 l -0.06,2.03271 h 2.9839 2.9839 z m 232.9769,-0.83268 c -0.1067,-3.70137 -0.4522,-9.02218 -0.5948,-9.16491 -0.043,-0.0433 -6.2368,0.55176 -6.2851,0.60394 -0.01,0.008 0.045,0.63095 0.1158,1.38526 0.1953,2.08271 0.3236,4.34873 0.398,7.02877 l 0.067,2.42456 h 3.1823 3.1823 z m -232.2855,-10.16355 c 0.201,-1.86118 0.8935,-6.46769 1.2295,-8.17983 0.2115,-1.07758 0.3538,-1.98719 0.3162,-2.02136 -0.038,-0.0342 -0.4738,-0.13514 -0.9694,-0.22438 -0.4955,-0.0893 -1.752,-0.35401 -2.7919,-0.58838 -1.04,-0.23435 -1.9048,-0.41338 -1.9217,-0.39783 -0.065,0.0594 -0.314,1.25704 -0.5527,2.65693 -0.1368,0.80117 -0.3599,2.09588 -0.4961,2.87713 -0.2279,1.30847 -0.8572,6.17983 -0.8046,6.22875 0.013,0.0117 1.059,0.11708 2.3251,0.23418 1.2661,0.11709 2.5666,0.24308 2.8898,0.27998 0.6832,0.0779 0.6725,0.0899 0.7758,-0.86519 z m 226.7409,0.83613 c 0.6735,-0.0779 2.04,-0.21385 3.0367,-0.30204 0.9968,-0.0882 1.825,-0.17256 1.8404,-0.1875 0.06,-0.0591 -0.5813,-5.00023 -0.8536,-6.56717 -0.4951,-2.84853 -0.6833,-3.89592 -0.8181,-4.55523 -0.1539,-0.75148 0.091,-0.7302 -2.2748,-0.19768 -0.9159,0.20617 -2.1884,0.47297 -2.8276,0.59288 l -1.1622,0.21804 0.052,0.35462 c 0.029,0.19504 0.1885,1.12607 0.3552,2.06895 0.5576,3.15688 0.7811,4.64033 0.9884,6.56345 0.1134,1.05065 0.2239,1.96536 0.2458,2.03272 0.048,0.1488 -0.065,0.15046 1.4175,-0.021 z m -224.4421,-14.11429 c 0.6025,-2.52134 1.4362,-5.61076 1.9875,-7.36469 0.173,-0.55083 0.2888,-1.02746 0.2571,-1.05918 -0.068,-0.0678 -5.4892,-1.81913 -5.5222,-1.78384 -0.035,0.0371 -0.6643,2.10951 -1.1531,3.79555 -0.4417,1.52389 -1.366,5.18367 -1.7126,6.78164 -0.1688,0.77792 -0.1712,0.85893 -0.028,0.89919 0.4618,0.12957 5.5206,1.20722 5.5663,1.18574 0.011,-0.005 0.2835,-1.10982 0.6049,-2.45441 z m 223.0972,2.16177 c 1.7703,-0.35725 4.1878,-0.9006 4.2351,-0.95185 0.088,-0.0959 -1.2503,-5.52488 -1.9763,-8.01392 -0.4095,-1.40406 -1.0133,-3.34746 -1.0575,-3.40381 -0.015,-0.0201 -5.8479,1.8313 -5.8973,1.87204 -0.01,0.007 0.2223,0.82888 0.5138,1.82565 0.6439,2.20223 1.6445,6.04429 1.9097,7.33332 0.2698,1.31132 0.3768,1.67918 0.4885,1.67918 0.053,0 0.8557,-0.15327 1.784,-0.34061 z m -1.182,-12.28753 c 1.0079,-0.3282 1.9006,-0.59673 1.9838,-0.59673 0.083,0 0.1512,-0.0804 0.1512,-0.17859 0,-0.62504 -3.9835,-10.98906 -4.2238,-10.98906 -0.083,0 -1.1411,0.45446 -2.7315,1.1732 -1.3207,0.59687 -2.3563,1.04954 -2.7002,1.18024 -0.2324,0.0884 -0.2377,0.1071 -0.1044,0.36503 0.4844,0.93672 2.318,5.66722 3.2431,8.36672 l 0.6599,1.92576 0.9447,-0.32492 c 0.5196,-0.17871 1.7694,-0.59345 2.7772,-0.92165 z m -219.0181,-0.0824 c 0.7946,-2.39077 1.8781,-5.25883 2.8962,-7.66553 0.7992,-1.88949 0.8021,-1.67459 -0.026,-2.02864 -0.391,-0.16707 -1.2178,-0.53325 -1.8374,-0.81372 -2.0873,-0.94489 -2.6768,-1.18144 -2.7512,-1.10412 -0.1277,0.13269 -1.7921,4.12521 -2.4416,5.85674 -0.4948,1.31935 -1.4382,3.95862 -1.6251,4.54631 -0.176,0.55312 -0.1731,0.69465 0.014,0.69465 0.1418,0 3.0404,0.92336 4.453,1.41852 0.3501,0.12277 0.704,0.22852 0.7863,0.23502 0.107,0.008 0.2584,-0.31569 0.5321,-1.13923 z m 211.8994,-10.15087 c 0.429,-0.1816 1.0665,-0.46412 1.4168,-0.62783 0.3502,-0.1637 1.2098,-0.54984 1.9102,-0.85809 0.7004,-0.30826 1.3081,-0.59148 1.3503,-0.62937 0.1113,-0.1 -0.4546,-1.36866 -1.9245,-4.31391 -1.2264,-2.45757 -3.0411,-5.83163 -3.1816,-5.9157 -0.036,-0.0213 -0.3513,0.12688 -0.7014,0.32927 -0.3502,0.20238 -1.3862,0.7964 -2.3021,1.32005 -0.916,0.52365 -1.8095,1.04066 -1.9857,1.14892 l -0.3201,0.19684 0.4144,0.75009 c 0.2281,0.41255 0.5824,1.05866 0.7875,1.43581 0.4867,0.89504 2.6638,5.31531 3.2184,6.53459 0.2378,0.52293 0.4562,0.95274 0.4851,0.95513 0.03,0.003 0.4037,-0.1442 0.8327,-0.3258 z m -207.5288,-0.89435 c 0.5131,-1.18692 2.9662,-6.05219 3.8006,-7.53729 0.3312,-0.5895 0.5687,-1.10225 0.5278,-1.13945 -0.042,-0.0372 -0.8679,-0.51966 -1.8377,-1.07213 -0.9698,-0.55247 -2.0498,-1.17146 -2.4001,-1.37552 -0.5826,-0.3395 -0.6475,-0.3571 -0.7641,-0.20714 -0.2731,0.35107 -1.9161,3.41759 -3.1059,5.79668 -1.4352,2.86949 -2.0412,4.22141 -1.935,4.31637 0.042,0.0366 0.6473,0.31856 1.3478,0.62671 0.7004,0.30815 1.7363,0.77047 2.3021,1.02737 1.4049,0.63795 1.5096,0.67812 1.5798,0.60654 0.034,-0.0343 0.2518,-0.50335 0.4847,-1.04214 z m 201.6474,-9.93049 c 1.5894,-0.90113 4.2902,-2.48069 4.5439,-2.65762 l 0.2109,-0.14693 -0.4719,-0.7837 c -1.1829,-1.96452 -1.491,-2.45638 -2.5463,-4.06543 -1.5006,-2.28801 -3.1871,-4.70092 -3.286,-4.70161 -0.044,-3e-4 -0.2204,0.10213 -0.3919,0.22765 -0.1715,0.12552 -0.7306,0.5364 -1.2425,0.91308 -0.5118,0.37668 -1.4155,1.02993 -2.0082,1.45167 -0.5927,0.42174 -1.1163,0.80115 -1.1635,0.84314 -0.048,0.042 0.2156,0.50933 0.5843,1.03855 0.7217,1.03612 2.8198,4.18921 3.1317,4.70664 0.1048,0.17366 0.5504,0.90171 0.9902,1.61789 0.4399,0.71617 0.8549,1.42269 0.9219,1.57003 0.067,0.14733 0.148,0.26709 0.1798,0.2661 0.032,-7.9e-4 0.2782,-0.12673 0.5476,-0.27946 z m -196.2263,-0.42908 c 0.6378,-1.14947 3.1828,-5.11247 4.535,-7.06197 0.5545,-0.79957 1.0084,-1.48679 1.0084,-1.52716 0,-0.0404 -0.3637,-0.33291 -0.8082,-0.65009 -0.4445,-0.31718 -1.3152,-0.94891 -1.9349,-1.40385 -0.6195,-0.45494 -1.2667,-0.92988 -1.4383,-1.05543 -0.1716,-0.12555 -0.3479,-0.22668 -0.3918,-0.22473 -0.1133,0.005 -2.9869,4.17826 -4.0116,5.82548 -0.8444,1.35766 -1.7837,2.89016 -2.0221,3.29923 l -0.2673,0.45862 0.8574,0.50897 c 0.4715,0.27994 1.1438,0.67386 1.4941,0.87539 0.3502,0.20153 1.0555,0.614 1.5674,0.91657 0.5118,0.3026 0.9747,0.55084 1.0285,0.55166 0.054,7.9e-4 0.2264,-0.22988 0.3834,-0.51269 z m 190.4956,-9.67993 c 1.0962,-0.8084 1.4966,-1.10057 2.7429,-2.00168 0.5118,-0.3701 0.9683,-0.70469 1.0143,-0.74356 0.085,-0.0718 -0.1248,-0.37367 -1.5942,-2.29351 -1.4602,-1.90787 -3.0692,-3.86949 -4.9287,-6.00903 l -0.8803,-1.01295 -0.3077,0.28671 c -0.1693,0.1577 -1.1787,1.06942 -2.2431,2.02604 l -1.9354,1.73935 0.319,0.37223 c 0.1755,0.20472 0.7864,0.91703 1.3575,1.58289 1.2789,1.49066 3.2309,3.93298 4.4277,5.53943 0.4941,0.66335 0.9432,1.2048 0.9979,1.20321 0.055,-0.002 0.5182,-0.31169 1.0301,-0.68913 z m -182.2635,-2.38472 c 1.2546,-1.61505 2.56,-3.19934 3.8932,-4.72501 l 0.9537,-1.09137 -1.7833,-1.60259 c -0.9808,-0.88143 -1.9439,-1.7464 -2.1402,-1.92215 l -0.3567,-0.31956 -1.1192,1.29918 c -2.1824,2.53362 -3.1012,3.65817 -4.7424,5.80542 -1.3006,1.70144 -1.4955,1.96735 -1.5288,2.08509 -0.016,0.055 1.0024,0.85229 2.2622,1.77165 l 2.2906,1.67154 0.5992,-0.79583 c 0.3296,-0.43771 1.0819,-1.41708 1.6717,-2.17637 z m 175.9867,-8.12096 c 1.1892,-1.06716 2.1623,-1.97468 2.1623,-2.01675 0,-0.27244 -8.0621,-8.33719 -8.3345,-8.33719 -0.04,0 -0.8338,0.8486 -1.7625,1.88578 -0.9288,1.03717 -1.8214,2.02742 -1.9832,2.20058 l -0.2945,0.31482 0.726,0.66357 c 1.4374,1.31375 4.0575,3.93147 5.5977,5.59247 0.8639,0.93154 1.6056,1.68095 1.6484,1.66536 0.042,-0.0156 1.051,-0.90148 2.2403,-1.96864 z m -169.3012,0.29943 c 1.4266,-1.53409 3.8395,-3.94157 5.5547,-5.54232 l 0.9694,-0.90468 -0.1939,-0.21742 c -2.3872,-2.67739 -3.5846,-3.98895 -3.6419,-3.98895 -0.2734,0 -8.34,8.06904 -8.34,8.34261 0,0.078 4.1254,3.80468 4.2119,3.80468 0.028,0 0.6757,-0.67227 1.4398,-1.49392 z m 160.3124,-8.52269 c 0.8868,-0.9833 1.7762,-1.97092 1.9764,-2.19473 l 0.3639,-0.40693 -1.042,-0.90711 c -0.5731,-0.49891 -1.6434,-1.40673 -2.3784,-2.01737 -0.7351,-0.61064 -1.5128,-1.257 -1.7283,-1.43635 -1.1852,-0.98623 -4.0914,-3.11452 -4.1532,-3.04148 -0.04,0.0469 -0.3749,0.5041 -0.7446,1.01596 -0.3699,0.51185 -0.8331,1.15105 -1.0295,1.42044 -0.7885,1.08163 -1.5062,2.06316 -1.5845,2.16673 -0.054,0.0721 0.3081,0.4072 1.0598,0.97962 0.6284,0.47855 1.2572,0.95763 1.3971,1.06462 1.209,0.92366 4.2063,3.42922 5.4802,4.58113 0.3427,0.3098 0.6562,0.56327 0.6969,0.56327 0.042,0 0.7994,-0.80451 1.6862,-1.7878 z m -152.7595,1.17021 c 1.5906,-1.4545 4.669,-3.9734 7.0249,-5.74811 0.5924,-0.44635 1.0912,-0.84735 1.1081,-0.89113 0.023,-0.0604 -2.8573,-4.11794 -3.2144,-4.52756 -0.063,-0.0726 -1.0377,0.62458 -3.037,2.17319 -1.581,1.22444 -2.1543,1.69695 -4.6309,3.81692 l -1.6431,1.4064 0.3206,0.35766 c 2.7009,3.01344 3.4558,3.8343 3.5264,3.8343 0.047,0 0.2918,-0.18975 0.5454,-0.42167 z m 142.408,-7.53541 c 0.2694,-0.38468 1.0298,-1.4402 1.6898,-2.34561 0.6601,-0.90541 1.1986,-1.67982 1.1967,-1.7209 -0.01,-0.21885 -6.7989,-4.70849 -9.1249,-6.03429 l -0.4587,-0.26142 -0.5089,0.85738 c -0.28,0.47155 -0.6744,1.14391 -0.8765,1.49412 -0.2022,0.35022 -0.6369,1.09791 -0.9661,1.66155 -0.3292,0.56364 -0.5659,1.05681 -0.5261,1.09594 0.04,0.0391 0.6013,0.38831 1.2479,0.77596 1.3778,0.82603 5.9429,3.84519 7.0043,4.63226 0.4041,0.29966 0.7568,0.54474 0.7837,0.54463 0.027,-1.1e-4 0.2694,-0.31495 0.5388,-0.69962 z m -132.7763,-0.12759 c 1.2767,-0.9202 5.2088,-3.50494 6.6993,-4.40379 0.7004,-0.4224 1.3269,-0.81599 1.3922,-0.87465 0.091,-0.0818 -0.01,-0.32386 -0.4293,-1.0373 -0.3015,-0.51185 -0.713,-1.21717 -0.9145,-1.56739 -0.2016,-0.35021 -0.5954,-1.02257 -0.8753,-1.49412 l -0.509,-0.85738 -0.4586,0.26732 c -0.4092,0.23844 -1.9416,1.17776 -3.2994,2.02222 -1.6472,1.02455 -5.8204,3.89829 -5.8254,4.01146 0,0.044 0.099,0.22035 0.2247,0.39186 0.1256,0.1715 0.6006,0.81879 1.0555,1.4384 0.455,0.6196 1.0867,1.49024 1.4038,1.93474 0.3172,0.44451 0.593,0.80819 0.6127,0.80819 0.02,0 0.4353,-0.2878 0.9233,-0.63956 z m 122.9902,-7.61574 c 0.5243,-0.92831 1.0261,-1.79805 1.1154,-1.93274 0.089,-0.13471 0.3018,-0.49674 0.4723,-0.80454 l 0.31,-0.55963 -0.66,-0.38158 c -1.583,-0.91512 -2.7798,-1.55069 -5.1711,-2.74585 -2.9195,-1.45924 -4.3624,-2.10604 -4.4597,-1.99921 -0.037,0.0408 -0.3194,0.64737 -0.6271,1.3478 -0.3078,0.70043 -0.7152,1.60412 -0.9052,2.00822 -0.1902,0.4041 -0.4476,0.98913 -0.5722,1.30007 l -0.2264,0.56535 1.3895,0.65632 c 2.6656,1.25912 7.2546,3.65457 8.0424,4.19813 0.103,0.0711 0.2214,0.10819 0.2632,0.0824 0.042,-0.0258 0.5047,-0.80642 1.0289,-1.73474 z m -111.7099,0.56334 c 2.0238,-1.10674 5.3197,-2.76504 6.8316,-3.43717 1.1068,-0.49211 1.0898,-0.41153 0.3989,-1.89982 -0.2626,-0.56572 -0.7296,-1.60167 -1.0376,-2.3021 -0.3081,-0.70043 -0.5904,-1.30693 -0.6276,-1.3478 -0.037,-0.0408 -0.4619,0.0967 -0.9436,0.30571 -1.8987,0.82363 -8.4076,4.18329 -9.136,4.71567 -0.199,0.14538 -0.1966,0.15471 0.2291,0.88165 0.2366,0.4041 0.862,1.49486 1.3897,2.42393 0.5276,0.92906 0.971,1.68949 0.9852,1.68985 0.014,3.9e-4 0.8738,-0.46312 1.9103,-1.02992 z m 100.7487,-4.7737 c 0.1669,-0.39063 0.5333,-1.21718 0.8141,-1.83679 0.7764,-1.71329 1.2081,-2.74209 1.1641,-2.77436 -0.06,-0.0443 -1.636,-0.70705 -3.2234,-1.35582 -2.4749,-1.01147 -7.0127,-2.6739 -7.599,-2.78392 -0.2765,-0.0519 -0.3359,-0.0332 -0.3359,0.10504 0,0.0924 -0.2355,0.8798 -0.5232,1.74973 -0.8961,2.709 -1.1468,3.51989 -1.1023,3.56441 0.023,0.0237 0.8288,0.32113 1.7894,0.66105 3.1154,1.10255 4.9398,1.81663 7.722,3.02249 0.4311,0.18681 0.8302,0.34388 0.8872,0.34902 0.057,0.005 0.24,-0.31023 0.407,-0.70085 z m -89.215,-0.68348 c 2.4052,-0.98692 3.4176,-1.37048 5.6817,-2.15254 0.9429,-0.32568 1.7228,-0.59889 1.7332,-0.60712 0.01,-0.008 -0.085,-0.32243 -0.2112,-0.69823 -0.7207,-2.14173 -1.424,-4.36972 -1.424,-4.5117 0,-0.13216 -0.06,-0.15132 -0.3176,-0.1 -0.3415,0.0682 -2.8521,0.94997 -4.9233,1.729 -2.0654,0.77684 -5.7079,2.29099 -5.8555,2.43419 -0.084,0.0811 0.032,0.3911 0.6604,1.77343 0.8798,1.9347 1.3401,2.96428 1.4249,3.1872 l 0.087,0.23045 0.5678,-0.23034 c 0.3123,-0.1267 1.4715,-0.60117 2.576,-1.05438 z m 78.0128,-3.57787 c 0.9363,-2.87666 1.5312,-4.75974 1.5091,-4.77736 -0.1542,-0.12318 -4.2153,-1.30486 -6.6213,-1.92657 -1.9616,-0.50691 -4.7432,-1.14667 -4.7987,-1.1037 -0.099,0.0767 -1.2439,5.51553 -1.1745,5.57998 0.016,0.0151 1.1978,0.31835 2.6256,0.6738 3.0585,0.76142 5.2812,1.37702 6.9063,1.91265 0.6466,0.21313 1.2049,0.3904 1.241,0.39395 0.036,0.004 0.1766,-0.33518 0.3125,-0.75275 z m -68.6574,0.23304 c 2.1085,-0.67644 8.6796,-2.40825 9.1594,-2.41394 0.483,-0.005 0.4303,-0.39729 -0.7332,-5.44717 l -0.048,-0.20744 -0.8586,0.18627 c -1.6025,0.34765 -5.2604,1.27138 -6.7853,1.71342 -1.6841,0.48823 -3.7584,1.11837 -3.7955,1.15301 -0.02,0.0183 1.5309,4.91306 1.6851,5.31995 0.025,0.0664 0.1026,0.10299 0.1719,0.0812 0.069,-0.0218 0.6111,-0.19517 1.2038,-0.38531 z m 57.0556,-3.22088 c 0.094,-0.54695 0.7304,-3.52214 1.0263,-4.79891 0.053,-0.2267 -0.061,-0.25409 -3.762,-0.902 -2.5535,-0.44707 -7.917,-1.18932 -7.9911,-1.10584 -0.011,0.0126 -0.069,0.57392 -0.1303,1.24742 -0.061,0.67348 -0.1811,1.92379 -0.2681,2.77846 -0.1233,1.21296 -0.1319,1.5701 -0.039,1.62762 0.066,0.0405 0.4348,0.10269 0.8205,0.13814 1.2694,0.11667 7.0386,1.04082 8.5874,1.37562 0.8351,0.1805 1.5444,0.33304 1.5761,0.33896 0.031,0.005 0.1128,-0.30885 0.18,-0.69947 z m -45.2081,0.25961 c 1.774,-0.36289 6.9043,-1.15341 8.8595,-1.36514 l 0.6248,-0.0677 -0.059,-0.55222 c -0.033,-0.30371 -0.153,-1.56611 -0.2674,-2.80532 -0.1146,-1.23922 -0.2178,-2.26342 -0.2294,-2.27601 -0.048,-0.0526 -4.9202,0.57672 -6.2285,0.80461 -0.7813,0.1361 -2.076,0.35927 -2.8771,0.49595 -1.4027,0.23928 -2.5994,0.48836 -2.6557,0.55275 -0.015,0.017 0.1432,0.78026 0.351,1.69621 0.2078,0.91593 0.4725,2.16464 0.5883,2.77489 0.2094,1.10472 0.2114,1.10926 0.4612,1.04657 0.1381,-0.0347 0.7827,-0.17172 1.4325,-0.30463 z m 33.4273,-2.5943 c 0.2533,-2.47446 0.4361,-4.51903 0.4065,-4.5466 -0.1494,-0.13999 -5.438,-0.47318 -9.3619,-0.58987 l -2.0817,-0.0619 v 2.83532 2.83531 l 0.3673,0.0607 c 0.202,0.0334 0.8949,0.0613 1.5398,0.0618 1.4522,0.002 4.2774,0.16195 6.8605,0.39003 1.0776,0.0952 2.0032,0.16415 2.0571,0.15332 0.054,-0.0108 0.1495,-0.52299 0.2124,-1.13814 z m -21.1077,0.94112 c 2.3391,-0.19951 4.9844,-0.34512 6.2854,-0.34594 0.6001,-4e-4 1.3887,-0.0288 1.7524,-0.0632 l 0.6612,-0.0624 v -2.83298 -2.83298 l -2.0326,0.0597 c -3.15,0.0926 -5.7876,0.2332 -7.69,0.41004 -1.5133,0.14065 -1.7389,0.18339 -1.7389,0.32937 0,0.0922 0.063,0.77954 0.141,1.52732 0.078,0.74778 0.1949,1.9437 0.2608,2.65759 l 0.1199,1.29801 h 0.2731 c 0.1502,0 1.0356,-0.0651 1.9677,-0.14457 z"
       style="fill:#86939c;fill-opacity:1;stroke-width:0.09796195" />
  </g>
</svg>
